<svg xmlns="http://www.w3.org/2000/svg" xmlns:xlink="http://www.w3.org/1999/xlink" width="2000" zoomAndPan="magnify" viewBox="0 0 1500 1499.999933" height="2000" preserveAspectRatio="xMidYMid meet" version="1.0"><defs><g/><clipPath id="fa618c4ad9"><path d="M 7 33 L 1252 33 L 1252 567 L 7 567 Z M 7 33 " clip-rule="nonzero"/></clipPath><clipPath id="a3e41b4efd"><path d="M -16.910156 -29.738281 L 1280.746094 43.625 L 1246.4375 650.433594 L -51.214844 577.070312 Z M -16.910156 -29.738281 " clip-rule="nonzero"/></clipPath><clipPath id="a1286fa1ff"><path d="M -16.910156 -29.738281 L 1280.746094 43.625 L 1246.4375 650.433594 L -51.214844 577.070312 Z M -16.910156 -29.738281 " clip-rule="nonzero"/></clipPath><clipPath id="89654a786e"><path d="M 344 586 L 888 586 L 888 883.398438 L 344 883.398438 Z M 344 586 " clip-rule="nonzero"/></clipPath><clipPath id="211324322a"><rect x="0" width="544" y="0" height="298"/></clipPath><clipPath id="9aa0f6b4dc"><rect x="0" width="1263" y="0" height="884"/></clipPath><clipPath id="529a5d215f"><path d="M 918 876.347656 L 978 876.347656 L 978 936 L 918 936 Z M 918 876.347656 " clip-rule="nonzero"/></clipPath><clipPath id="024cc89a61"><path d="M 1075 1005 L 1134.554688 1005 L 1134.554688 1065 L 1075 1065 Z M 1075 1005 " clip-rule="nonzero"/></clipPath><clipPath id="c476928769"><path d="M 608 1235 L 687 1235 L 687 1313.597656 L 608 1313.597656 Z M 608 1235 " clip-rule="nonzero"/></clipPath></defs><g transform="matrix(1, 0, 0, 1, 135, 319)"><g clip-path="url(#9aa0f6b4dc)"><g clip-path="url(#fa618c4ad9)"><g clip-path="url(#a3e41b4efd)"><g clip-path="url(#a1286fa1ff)"><path fill="#e4e2dd" d="M 764.496094 290.53125 C 737.597656 231.277344 708.636719 178.300781 634.089844 159.171875 C 534.988281 133.542969 444.816406 206.203125 420.371094 291.953125 C 417.71875 301.175781 405.410156 353.097656 413.886719 357.625 C 419.464844 360.710938 586.40625 339.472656 602.0625 337.585938 C 652.234375 331.902344 708.796875 326.152344 758.476562 317.882812 C 780.414062 314.222656 773.386719 310.417969 764.496094 290.53125 Z M 628.269531 514.605469 C 610.488281 516.371094 591.71875 516.800781 574.324219 519.226562 C 620.464844 532.0625 706.855469 503.710938 651.445312 511.65625 C 643.714844 512.710938 636.199219 513.777344 628.269531 514.605469 Z M 820.929688 434.109375 C 737.453125 546.558594 596.441406 583.960938 468.699219 514.746094 C 410.613281 483.34375 459.660156 516.367188 479.96875 526.460938 C 610.496094 591.570312 782.433594 538.449219 838.757812 408.914062 C 848.535156 386.671875 823.007812 431.242188 820.929688 434.109375 Z M 858.070312 300.933594 C 897.113281 284.820312 856.59375 266.765625 832.789062 273.300781 C 810.082031 279.261719 805.863281 274.761719 792.941406 254.644531 C 762.796875 207.5625 752.925781 178.671875 695.058594 150.902344 C 570.1875 91.222656 440.210938 163.335938 409.960938 283.90625 C 398.410156 329.90625 430.675781 249.074219 432.34375 245.972656 C 476.632812 159.644531 581.1875 122.734375 674.234375 165.0625 C 758.976562 203.515625 748.402344 292.601562 806.695312 305.269531 C 824.378906 309.039062 840.945312 306.144531 858.070312 300.933594 Z M 1250.730469 254.960938 C 1176.332031 289.742188 1023.582031 301.128906 937.398438 314.578125 C 846.46875 329.035156 876.527344 377.601562 833.261719 442.046875 C 723.238281 605.828125 489.847656 607.972656 380.46875 447.550781 C 343.664062 393.917969 341.839844 388.488281 267.125 398.75 C 258.097656 400.15625 130.648438 420.007812 141.261719 401.859375 C 145.515625 394.433594 135.957031 397.726562 127.367188 398.945312 C 126.71875 399.121094 -42.527344 423.425781 22.296875 407.277344 C 74.585938 394.257812 203.25 386.832031 235.011719 375.207031 C 253.082031 368.34375 119.460938 388.058594 206.726562 366.789062 C 226.601562 361.949219 294.253906 344.683594 305.925781 330.429688 C 305.113281 329.746094 212.613281 368.1875 203.59375 361.925781 C 204.066406 361.101562 240.234375 343.121094 246.21875 338.984375 C 331.941406 280.988281 316.207031 144.820312 470.074219 64.6875 C 585.753906 4.335938 732.042969 35.613281 814.988281 124.664062 C 854.367188 166.726562 871.96875 213.308594 905.746094 252.714844 C 950.101562 304.644531 1269.804688 245.390625 1250.730469 254.960938 Z M 754.464844 343.648438 C 706.878906 348.839844 660.160156 357.488281 611.085938 362.597656 C 588.160156 364.921875 419.507812 378.820312 411.625 390.089844 C 402.140625 403.402344 451.917969 434.761719 462.699219 440.058594 C 564.054688 489.886719 700.582031 486.527344 766.773438 385.882812 C 779.109375 367.410156 795.734375 340.867188 760.445312 343.347656 Z M 418.085938 140.144531 C 381.824219 159.824219 334.734375 250.46875 331.804688 287.15625 C 330.359375 305.183594 363.988281 219.101562 367.355469 212.261719 C 378.21875 189.65625 416.558594 148.363281 419.363281 140.214844 Z M 669.730469 78.957031 C 649.367188 66.089844 572.863281 70.285156 547.683594 74.828125 C 516.246094 80.71875 453.042969 105.902344 529.523438 87.007812 C 590.027344 71.894531 590.839844 76.414062 651.359375 79.835938 C 653.695312 79.96875 668.949219 81.46875 669.730469 78.957031 Z M 669.730469 78.957031 " fill-opacity="1" fill-rule="evenodd"/></g></g></g><g clip-path="url(#89654a786e)"><g transform="matrix(1, 0, 0, 1, 344, 586)"><g clip-path="url(#211324322a)"><g fill="#e4e2dd" fill-opacity="1"><g transform="translate(4.939521, 228.833106)"><g><path d="M 49.671875 -128.078125 L 49.671875 -72.859375 L 61.890625 -72.859375 L 61.890625 -128.078125 C 61.890625 -130.179688 61.488281 -132.113281 60.6875 -133.875 C 59.894531 -135.644531 58.28125 -136.53125 55.84375 -136.53125 C 53.40625 -136.53125 51.765625 -135.644531 50.921875 -133.875 C 50.085938 -132.113281 49.671875 -130.179688 49.671875 -128.078125 Z M 107.28125 -130.71875 L 107.28125 -5.296875 C 107.28125 -3.953125 106.898438 -2.734375 106.140625 -1.640625 C 105.390625 -0.546875 104.296875 0 102.859375 0 L 66.3125 0 C 65.050781 0 64 -0.546875 63.15625 -1.640625 C 62.3125 -2.734375 61.890625 -3.953125 61.890625 -5.296875 L 61.890625 -33.40625 L 49.671875 -33.40625 L 49.671875 -5.296875 C 49.671875 -3.867188 49.414062 -2.628906 48.90625 -1.578125 C 48.40625 -0.523438 47.316406 0 45.640625 0 L 7.6875 0 C 6.757812 0 5.957031 -0.546875 5.28125 -1.640625 C 4.613281 -2.734375 4.28125 -3.953125 4.28125 -5.296875 L 4.28125 -130.71875 C 4.28125 -137.195312 5.664062 -143.269531 8.4375 -148.9375 C 11.21875 -154.613281 15.003906 -159.59375 19.796875 -163.875 C 24.585938 -168.164062 30.070312 -171.507812 36.25 -173.90625 C 42.425781 -176.300781 48.914062 -177.5 55.71875 -177.5 C 62.519531 -177.5 69.03125 -176.300781 75.25 -173.90625 C 81.476562 -171.507812 86.984375 -168.164062 91.765625 -163.875 C 96.554688 -159.59375 100.335938 -154.613281 103.109375 -148.9375 C 105.890625 -143.269531 107.28125 -137.195312 107.28125 -130.71875 Z M 107.28125 -130.71875 "/></g></g></g><g fill="#e4e2dd" fill-opacity="1"><g transform="translate(116.491152, 228.833106)"><g><path d="M 60 -48.15625 L 60 -63.78125 C 60 -65.800781 59.347656 -67.546875 58.046875 -69.015625 C 56.742188 -70.484375 54.832031 -71.21875 52.3125 -71.21875 L 46.640625 -71.21875 L 46.640625 -40.84375 L 52.5625 -40.84375 C 54.582031 -40.84375 56.328125 -41.554688 57.796875 -42.984375 C 59.265625 -44.410156 60 -46.132812 60 -48.15625 Z M 59.75 -115.34375 L 59.75 -125.296875 C 59.75 -128.328125 58.972656 -130.453125 57.421875 -131.671875 C 55.867188 -132.890625 54.125 -133.5 52.1875 -133.5 L 46.640625 -133.5 L 46.640625 -107.28125 L 52.1875 -107.28125 C 54.207031 -107.28125 55.972656 -107.828125 57.484375 -108.921875 C 58.992188 -110.015625 59.75 -112.15625 59.75 -115.34375 Z M 102.734375 -127.953125 L 102.734375 -117.734375 C 102.734375 -113.203125 101.785156 -109 99.890625 -105.125 C 98.003906 -101.257812 95.757812 -98.046875 93.15625 -95.484375 C 90.550781 -92.921875 88.15625 -91.304688 85.96875 -90.640625 C 87.488281 -90.046875 89.316406 -88.929688 91.453125 -87.296875 C 93.597656 -85.660156 95.738281 -83.515625 97.875 -80.859375 C 100.019531 -78.210938 101.804688 -75.082031 103.234375 -71.46875 C 104.671875 -67.863281 105.390625 -63.789062 105.390625 -59.25 L 105.390625 -43.109375 C 105.390625 -36.972656 104.039062 -31.28125 101.34375 -26.03125 C 98.65625 -20.78125 95.0625 -16.195312 90.5625 -12.28125 C 86.070312 -8.375 81.03125 -5.347656 75.4375 -3.203125 C 69.851562 -1.066406 64.160156 0 58.359375 0 L 9.578125 0 C 6.390625 0 4.796875 -1.722656 4.796875 -5.171875 L 4.796875 -169.296875 C 4.796875 -172.828125 6.390625 -174.59375 9.578125 -174.59375 L 54.578125 -174.59375 C 61.890625 -174.59375 68.488281 -173.351562 74.375 -170.875 C 80.257812 -168.394531 85.320312 -165.007812 89.5625 -160.71875 C 93.8125 -156.4375 97.066406 -151.476562 99.328125 -145.84375 C 101.597656 -140.21875 102.734375 -134.253906 102.734375 -127.953125 Z M 102.734375 -127.953125 "/></g></g></g><g fill="#e4e2dd" fill-opacity="1"><g transform="translate(221.992525, 228.833106)"><g><path d="M 106.140625 -130.71875 L 106.140625 -43.875 C 106.140625 -36.21875 104.753906 -29.488281 101.984375 -23.6875 C 99.210938 -17.894531 95.410156 -13.023438 90.578125 -9.078125 C 85.742188 -5.128906 80.238281 -2.144531 74.0625 -0.125 C 67.882812 1.894531 61.347656 2.90625 54.453125 2.90625 C 47.648438 2.90625 41.160156 1.851562 34.984375 -0.25 C 28.804688 -2.351562 23.320312 -5.421875 18.53125 -9.453125 C 13.738281 -13.484375 9.957031 -18.378906 7.1875 -24.140625 C 4.414062 -29.898438 3.03125 -36.476562 3.03125 -43.875 L 3.03125 -130.71875 C 3.03125 -138.28125 4.414062 -144.960938 7.1875 -150.765625 C 9.957031 -156.566406 13.71875 -161.441406 18.46875 -165.390625 C 23.21875 -169.335938 28.679688 -172.316406 34.859375 -174.328125 C 41.035156 -176.347656 47.523438 -177.359375 54.328125 -177.359375 C 61.222656 -177.359375 67.78125 -176.367188 74 -174.390625 C 80.21875 -172.421875 85.742188 -169.460938 90.578125 -165.515625 C 95.410156 -161.566406 99.210938 -156.691406 101.984375 -150.890625 C 104.753906 -145.097656 106.140625 -138.375 106.140625 -130.71875 Z M 54.703125 -136.53125 C 52.265625 -136.53125 50.601562 -135.601562 49.71875 -133.75 C 48.84375 -131.90625 48.40625 -129.972656 48.40625 -127.953125 L 48.40625 -46.515625 C 48.40625 -44.410156 48.78125 -42.472656 49.53125 -40.703125 C 50.289062 -38.941406 51.929688 -38.0625 54.453125 -38.0625 C 57.054688 -38.0625 58.757812 -38.773438 59.5625 -40.203125 C 60.363281 -41.640625 60.765625 -43.410156 60.765625 -45.515625 L 60.765625 -127.953125 C 60.765625 -129.972656 60.363281 -131.90625 59.5625 -133.75 C 58.757812 -135.601562 57.140625 -136.53125 54.703125 -136.53125 Z M 54.703125 -136.53125 "/></g></g></g><g fill="#e4e2dd" fill-opacity="1"><g transform="translate(331.149217, 228.833106)"><g><path d="M 61.890625 -46.515625 L 61.890625 -169.296875 C 61.890625 -170.722656 62.3125 -171.960938 63.15625 -173.015625 C 64 -174.066406 65.050781 -174.59375 66.3125 -174.59375 L 102.859375 -174.59375 C 104.296875 -174.59375 105.390625 -174.046875 106.140625 -172.953125 C 106.898438 -171.859375 107.28125 -170.640625 107.28125 -169.296875 L 107.28125 -43.875 C 107.28125 -37.394531 105.890625 -31.316406 103.109375 -25.640625 C 100.335938 -19.972656 96.554688 -14.992188 91.765625 -10.703125 C 86.984375 -6.421875 81.476562 -3.082031 75.25 -0.6875 C 69.03125 1.707031 62.519531 2.90625 55.71875 2.90625 C 48.914062 2.90625 42.425781 1.707031 36.25 -0.6875 C 30.070312 -3.082031 24.585938 -6.421875 19.796875 -10.703125 C 15.003906 -14.992188 11.21875 -19.972656 8.4375 -25.640625 C 5.664062 -31.316406 4.28125 -37.394531 4.28125 -43.875 L 4.28125 -169.296875 C 4.28125 -170.640625 4.613281 -171.859375 5.28125 -172.953125 C 5.957031 -174.046875 6.757812 -174.59375 7.6875 -174.59375 L 45.640625 -174.59375 C 47.316406 -174.59375 48.40625 -174.066406 48.90625 -173.015625 C 49.414062 -171.960938 49.671875 -170.722656 49.671875 -169.296875 L 49.671875 -46.515625 C 49.671875 -44.410156 50.085938 -42.472656 50.921875 -40.703125 C 51.765625 -38.941406 53.40625 -38.0625 55.84375 -38.0625 C 58.28125 -38.0625 59.894531 -38.941406 60.6875 -40.703125 C 61.488281 -42.472656 61.890625 -44.410156 61.890625 -46.515625 Z M 61.890625 -46.515625 "/></g></g></g><g fill="#e4e2dd" fill-opacity="1"><g transform="translate(442.700847, 228.833106)"><g><path d="M 91.015625 -133.5 L 69.84375 -133.5 L 69.84375 -4.921875 C 69.84375 -1.640625 68.535156 0 65.921875 0 L 28.359375 0 C 25.753906 0 24.453125 -1.640625 24.453125 -4.921875 L 24.453125 -133.5 L 3.15625 -133.5 C 0.550781 -133.5 -0.75 -135.222656 -0.75 -138.671875 L -0.75 -169.296875 C -0.75 -172.828125 0.550781 -174.59375 3.15625 -174.59375 L 91.015625 -174.59375 C 93.703125 -174.59375 95.046875 -172.828125 95.046875 -169.296875 L 95.046875 -138.671875 C 95.046875 -135.222656 93.703125 -133.5 91.015625 -133.5 Z M 91.015625 -133.5 "/></g></g></g></g></g></g></g></g><g clip-path="url(#529a5d215f)"><path fill="#000000" d="M 948.066406 876.484375 C 948.066406 892.859375 961.332031 906.035156 977.617188 906.035156 C 961.242188 906.035156 948.066406 919.300781 948.066406 935.585938 C 948.066406 919.210938 934.800781 906.035156 918.515625 906.035156 C 934.800781 906.035156 948.066406 892.769531 948.066406 876.484375 Z M 948.066406 876.484375 " fill-opacity="1" fill-rule="nonzero"/></g><g clip-path="url(#024cc89a61)"><path fill="#000000" d="M 1104.699219 1005.667969 C 1104.699219 1022.042969 1117.964844 1035.21875 1134.25 1035.21875 C 1117.875 1035.21875 1104.699219 1048.484375 1104.699219 1064.769531 C 1104.699219 1048.394531 1091.433594 1035.21875 1075.148438 1035.21875 C 1091.433594 1035.21875 1104.699219 1021.953125 1104.699219 1005.667969 Z M 1104.699219 1005.667969 " fill-opacity="1" fill-rule="nonzero"/></g><path fill="#000000" d="M 779.269531 966.507812 C 779.269531 976.664062 787.503906 984.898438 797.660156 984.898438 C 787.503906 984.898438 779.269531 993.132812 779.269531 1003.289062 C 779.269531 993.132812 771.035156 984.898438 760.878906 984.898438 C 771.035156 984.898438 779.269531 976.664062 779.269531 966.507812 Z M 779.269531 966.507812 " fill-opacity="1" fill-rule="nonzero"/><path fill="#000000" d="M 791.164062 1158.363281 C 791.164062 1164.949219 796.46875 1170.257812 803.054688 1170.257812 C 796.46875 1170.257812 791.164062 1175.5625 791.164062 1182.152344 C 791.164062 1175.5625 785.855469 1170.257812 779.269531 1170.257812 C 785.855469 1170.257812 791.164062 1164.949219 791.164062 1158.363281 Z M 791.164062 1158.363281 " fill-opacity="1" fill-rule="nonzero"/><path fill="#000000" d="M 975.515625 993.683594 C 975.515625 1000.269531 980.820312 1005.574219 987.410156 1005.574219 C 980.820312 1005.574219 975.515625 1010.882812 975.515625 1017.46875 C 975.515625 1010.882812 970.207031 1005.574219 963.621094 1005.574219 C 970.207031 1005.667969 975.515625 1000.269531 975.515625 993.683594 Z M 975.515625 993.683594 " fill-opacity="1" fill-rule="nonzero"/><g clip-path="url(#c476928769)"><path fill="#000000" d="M 629.042969 1313.804688 C 639.105469 1292.121094 629.773438 1266.320312 608.089844 1256.257812 C 629.773438 1266.320312 655.574219 1256.988281 665.636719 1235.308594 C 655.574219 1256.988281 664.90625 1282.789062 686.589844 1292.855469 C 664.90625 1282.789062 639.105469 1292.121094 629.042969 1313.804688 Z M 629.042969 1313.804688 " fill-opacity="1" fill-rule="nonzero"/></g><path fill="#000000" d="M 540.207031 1026.34375 C 540.207031 1014.90625 530.964844 1005.667969 519.527344 1005.667969 C 530.964844 1005.667969 540.207031 996.425781 540.207031 984.992188 C 540.207031 996.425781 549.445312 1005.667969 560.882812 1005.667969 C 549.445312 1005.667969 540.207031 1014.90625 540.207031 1026.34375 Z M 540.207031 1026.34375 " fill-opacity="1" fill-rule="nonzero"/><path fill="#000000" d="M 1042.484375 983.433594 C 1038.550781 971.90625 1003.511719 972.089844 949.714844 981.789062 C 1021.71875 966.96875 1069.839844 964.863281 1074.691406 979.136719 C 1083.5625 1005.210938 945.230469 1075.75 765.726562 1136.773438 C 586.226562 1197.796875 433.527344 1226.15625 424.652344 1200.082031 C 419.804688 1185.8125 459.144531 1158.179688 525.292969 1125.976562 C 476.710938 1151.042969 448.808594 1172.269531 452.742188 1183.796875 C 460.792969 1207.402344 599.308594 1181.695312 762.160156 1126.34375 C 925.011719 1071.082031 1050.535156 1007.039062 1042.484375 983.433594 Z M 1042.484375 983.433594 " fill-opacity="1" fill-rule="nonzero"/><path fill="#000000" d="M 928.304688 1014.085938 C 925.925781 1007.039062 904.609375 1007.222656 871.949219 1013.078125 C 915.679688 1004.019531 944.867188 1002.832031 947.792969 1011.523438 C 953.191406 1027.351562 869.203125 1070.167969 760.148438 1107.3125 C 651.089844 1144.367188 558.410156 1161.566406 553.015625 1145.738281 C 550.085938 1137.046875 573.964844 1120.304688 614.128906 1100.726562 C 584.667969 1116.003906 567.652344 1128.8125 570.03125 1135.855469 C 574.878906 1150.222656 659.050781 1134.578125 757.953125 1101 C 856.945312 1067.332031 933.15625 1028.449219 928.304688 1014.085938 Z M 928.304688 1014.085938 " fill-opacity="1" fill-rule="nonzero"/><path fill="#000000" d="M 841.847656 1037.597656 C 840.660156 1033.9375 829.589844 1034.027344 812.664062 1037.046875 C 835.351562 1032.382812 850.449219 1031.742188 852.003906 1036.226562 C 854.746094 1044.457031 811.289062 1066.597656 754.839844 1085.8125 C 698.390625 1105.023438 650.359375 1113.898438 647.523438 1105.757812 C 645.96875 1101.273438 658.410156 1092.582031 679.179688 1082.425781 C 663.898438 1090.296875 655.117188 1096.972656 656.304688 1100.632812 C 658.867188 1108.042969 702.417969 1099.992188 753.652344 1082.519531 C 804.886719 1065.136719 844.316406 1045.007812 841.847656 1037.597656 Z M 841.847656 1037.597656 " fill-opacity="1" fill-rule="nonzero"/></svg>