<svg xmlns="http://www.w3.org/2000/svg" xmlns:xlink="http://www.w3.org/1999/xlink" width="2000" zoomAndPan="magnify" viewBox="0 0 1500 1499.999933" height="2000" preserveAspectRatio="xMidYMid meet" version="1.0"><defs><g/><clipPath id="d14c9458bf"><path d="M 7 33 L 1252 33 L 1252 567 L 7 567 Z M 7 33 " clip-rule="nonzero"/></clipPath><clipPath id="efd7f75334"><path d="M -16.910156 -29.738281 L 1280.746094 43.625 L 1246.4375 650.433594 L -51.214844 577.070312 Z M -16.910156 -29.738281 " clip-rule="nonzero"/></clipPath><clipPath id="a296e0f63c"><path d="M -16.910156 -29.738281 L 1280.746094 43.625 L 1246.4375 650.433594 L -51.214844 577.070312 Z M -16.910156 -29.738281 " clip-rule="nonzero"/></clipPath><clipPath id="b58c163b6f"><path d="M 367 586 L 871 586 L 871 883.398438 L 367 883.398438 Z M 367 586 " clip-rule="nonzero"/></clipPath><clipPath id="e9dc210425"><rect x="0" width="504" y="0" height="298"/></clipPath><clipPath id="0920768225"><rect x="0" width="1263" y="0" height="884"/></clipPath><clipPath id="4bf4556d85"><path d="M 912 848.671875 L 972 848.671875 L 972 908 L 912 908 Z M 912 848.671875 " clip-rule="nonzero"/></clipPath><clipPath id="28d52fdbc0"><path d="M 1069 977 L 1128.519531 977 L 1128.519531 1038 L 1069 1038 Z M 1069 977 " clip-rule="nonzero"/></clipPath><clipPath id="569760ddba"><path d="M 602 1207 L 681 1207 L 681 1285.921875 L 602 1285.921875 Z M 602 1207 " clip-rule="nonzero"/></clipPath></defs><g transform="matrix(1, 0, 0, 1, 135, 319)"><g clip-path="url(#0920768225)"><g clip-path="url(#d14c9458bf)"><g clip-path="url(#efd7f75334)"><g clip-path="url(#a296e0f63c)"><path fill="#e4e2dd" d="M 764.496094 290.53125 C 737.597656 231.277344 708.636719 178.300781 634.089844 159.171875 C 534.988281 133.542969 444.816406 206.203125 420.371094 291.953125 C 417.71875 301.175781 405.410156 353.097656 413.886719 357.625 C 419.464844 360.710938 586.40625 339.472656 602.0625 337.585938 C 652.234375 331.902344 708.796875 326.152344 758.476562 317.882812 C 780.414062 314.222656 773.386719 310.417969 764.496094 290.53125 Z M 628.269531 514.605469 C 610.488281 516.371094 591.71875 516.800781 574.324219 519.226562 C 620.464844 532.0625 706.855469 503.710938 651.445312 511.65625 C 643.714844 512.710938 636.199219 513.777344 628.269531 514.605469 Z M 820.929688 434.109375 C 737.453125 546.558594 596.441406 583.960938 468.699219 514.746094 C 410.613281 483.34375 459.660156 516.367188 479.96875 526.460938 C 610.496094 591.570312 782.433594 538.449219 838.757812 408.914062 C 848.535156 386.671875 823.007812 431.242188 820.929688 434.109375 Z M 858.070312 300.933594 C 897.113281 284.820312 856.59375 266.765625 832.789062 273.300781 C 810.082031 279.261719 805.863281 274.761719 792.941406 254.644531 C 762.796875 207.5625 752.925781 178.671875 695.058594 150.902344 C 570.1875 91.222656 440.210938 163.335938 409.960938 283.90625 C 398.410156 329.90625 430.675781 249.074219 432.34375 245.972656 C 476.632812 159.644531 581.1875 122.734375 674.234375 165.0625 C 758.976562 203.515625 748.402344 292.601562 806.695312 305.269531 C 824.378906 309.039062 840.945312 306.144531 858.070312 300.933594 Z M 1250.730469 254.960938 C 1176.332031 289.742188 1023.582031 301.128906 937.398438 314.578125 C 846.46875 329.035156 876.527344 377.601562 833.261719 442.046875 C 723.238281 605.828125 489.847656 607.972656 380.46875 447.550781 C 343.664062 393.917969 341.839844 388.488281 267.125 398.75 C 258.097656 400.15625 130.648438 420.007812 141.261719 401.859375 C 145.515625 394.433594 135.957031 397.726562 127.367188 398.945312 C 126.71875 399.121094 -42.527344 423.425781 22.296875 407.277344 C 74.585938 394.257812 203.25 386.832031 235.011719 375.207031 C 253.082031 368.34375 119.460938 388.058594 206.726562 366.789062 C 226.601562 361.949219 294.253906 344.683594 305.925781 330.429688 C 305.113281 329.746094 212.613281 368.1875 203.59375 361.925781 C 204.066406 361.101562 240.234375 343.121094 246.21875 338.984375 C 331.941406 280.988281 316.207031 144.820312 470.074219 64.6875 C 585.753906 4.335938 732.042969 35.613281 814.988281 124.664062 C 854.367188 166.726562 871.96875 213.308594 905.746094 252.714844 C 950.101562 304.644531 1269.804688 245.390625 1250.730469 254.960938 Z M 754.464844 343.648438 C 706.878906 348.839844 660.160156 357.488281 611.085938 362.597656 C 588.160156 364.921875 419.507812 378.820312 411.625 390.089844 C 402.140625 403.402344 451.917969 434.761719 462.699219 440.058594 C 564.054688 489.886719 700.582031 486.527344 766.773438 385.882812 C 779.109375 367.410156 795.734375 340.867188 760.445312 343.347656 Z M 418.085938 140.144531 C 381.824219 159.824219 334.734375 250.46875 331.804688 287.15625 C 330.359375 305.183594 363.988281 219.101562 367.355469 212.261719 C 378.21875 189.65625 416.558594 148.363281 419.363281 140.214844 Z M 669.730469 78.957031 C 649.367188 66.089844 572.863281 70.285156 547.683594 74.828125 C 516.246094 80.71875 453.042969 105.902344 529.523438 87.007812 C 590.027344 71.894531 590.839844 76.414062 651.359375 79.835938 C 653.695312 79.96875 668.949219 81.46875 669.730469 78.957031 Z M 669.730469 78.957031 " fill-opacity="1" fill-rule="evenodd"/></g></g></g><g clip-path="url(#b58c163b6f)"><g transform="matrix(1, 0, 0, 1, 367, 586)"><g clip-path="url(#e9dc210425)"><g fill="#e4e2dd" fill-opacity="1"><g transform="translate(2.805066, 228.833106)"><g><path d="M 67.3125 -174.59375 L 103.25 -174.59375 C 104.25 -174.59375 105.273438 -174.273438 106.328125 -173.640625 C 107.378906 -173.015625 107.90625 -171.648438 107.90625 -169.546875 L 107.90625 -5.171875 C 107.90625 -1.722656 106.140625 0 102.609375 0 L 67.3125 0 C 64.125 0 62.53125 -1.722656 62.53125 -5.171875 L 62.53125 -69.453125 L 50.171875 -69.453125 L 50.171875 -5.171875 C 50.171875 -1.722656 48.617188 0 45.515625 0 L 9.578125 0 C 6.390625 0 4.796875 -1.722656 4.796875 -5.171875 L 4.796875 -169.296875 C 4.796875 -172.828125 6.390625 -174.59375 9.578125 -174.59375 L 45.515625 -174.59375 C 48.617188 -174.59375 50.171875 -172.828125 50.171875 -169.296875 L 50.171875 -110.421875 L 62.53125 -110.421875 L 62.53125 -169.296875 C 62.53125 -170.722656 62.925781 -171.960938 63.71875 -173.015625 C 64.519531 -174.066406 65.71875 -174.59375 67.3125 -174.59375 Z M 67.3125 -174.59375 "/></g></g></g><g fill="#e4e2dd" fill-opacity="1"><g transform="translate(115.617166, 228.833106)"><g><path d="M 106.140625 -130.71875 L 106.140625 -43.875 C 106.140625 -36.21875 104.753906 -29.488281 101.984375 -23.6875 C 99.210938 -17.894531 95.410156 -13.023438 90.578125 -9.078125 C 85.742188 -5.128906 80.238281 -2.144531 74.0625 -0.125 C 67.882812 1.894531 61.347656 2.90625 54.453125 2.90625 C 47.648438 2.90625 41.160156 1.851562 34.984375 -0.25 C 28.804688 -2.351562 23.320312 -5.421875 18.53125 -9.453125 C 13.738281 -13.484375 9.957031 -18.378906 7.1875 -24.140625 C 4.414062 -29.898438 3.03125 -36.476562 3.03125 -43.875 L 3.03125 -130.71875 C 3.03125 -138.28125 4.414062 -144.960938 7.1875 -150.765625 C 9.957031 -156.566406 13.71875 -161.441406 18.46875 -165.390625 C 23.21875 -169.335938 28.679688 -172.316406 34.859375 -174.328125 C 41.035156 -176.347656 47.523438 -177.359375 54.328125 -177.359375 C 61.222656 -177.359375 67.78125 -176.367188 74 -174.390625 C 80.21875 -172.421875 85.742188 -169.460938 90.578125 -165.515625 C 95.410156 -161.566406 99.210938 -156.691406 101.984375 -150.890625 C 104.753906 -145.097656 106.140625 -138.375 106.140625 -130.71875 Z M 54.703125 -136.53125 C 52.265625 -136.53125 50.601562 -135.601562 49.71875 -133.75 C 48.84375 -131.90625 48.40625 -129.972656 48.40625 -127.953125 L 48.40625 -46.515625 C 48.40625 -44.410156 48.78125 -42.472656 49.53125 -40.703125 C 50.289062 -38.941406 51.929688 -38.0625 54.453125 -38.0625 C 57.054688 -38.0625 58.757812 -38.773438 59.5625 -40.203125 C 60.363281 -41.640625 60.765625 -43.410156 60.765625 -45.515625 L 60.765625 -127.953125 C 60.765625 -129.972656 60.363281 -131.90625 59.5625 -133.75 C 58.757812 -135.601562 57.140625 -136.53125 54.703125 -136.53125 Z M 54.703125 -136.53125 "/></g></g></g><g fill="#e4e2dd" fill-opacity="1"><g transform="translate(224.773858, 228.833106)"><g><path d="M 119.625 -5.296875 L 119.625 -128.078125 C 119.625 -130.179688 119.222656 -132.113281 118.421875 -133.875 C 117.628906 -135.644531 116.015625 -136.53125 113.578125 -136.53125 C 111.140625 -136.53125 109.476562 -135.644531 108.59375 -133.875 C 107.71875 -132.113281 107.28125 -130.179688 107.28125 -128.078125 L 107.28125 -5.296875 C 107.28125 -3.867188 107.046875 -2.628906 106.578125 -1.578125 C 106.117188 -0.523438 105.050781 0 103.375 0 L 65.421875 0 C 64.492188 0 63.671875 -0.546875 62.953125 -1.640625 C 62.242188 -2.734375 61.890625 -3.953125 61.890625 -5.296875 L 61.890625 -128.953125 C 61.804688 -130.890625 61.34375 -132.632812 60.5 -134.1875 C 59.664062 -135.75 58.113281 -136.53125 55.84375 -136.53125 C 53.40625 -136.53125 51.765625 -135.644531 50.921875 -133.875 C 50.085938 -132.113281 49.671875 -130.179688 49.671875 -128.078125 L 49.671875 -5.296875 C 49.671875 -3.867188 49.414062 -2.628906 48.90625 -1.578125 C 48.40625 -0.523438 47.316406 0 45.640625 0 L 7.6875 0 C 6.757812 0 5.957031 -0.546875 5.28125 -1.640625 C 4.613281 -2.734375 4.28125 -3.953125 4.28125 -5.296875 L 4.28125 -130.71875 C 4.28125 -137.195312 5.664062 -143.269531 8.4375 -148.9375 C 11.21875 -154.613281 15.003906 -159.59375 19.796875 -163.875 C 24.585938 -168.164062 30.070312 -171.507812 36.25 -173.90625 C 42.425781 -176.300781 48.914062 -177.5 55.71875 -177.5 C 60.925781 -177.5 65.988281 -176.78125 70.90625 -175.34375 C 75.820312 -173.914062 80.382812 -171.859375 84.59375 -169.171875 C 88.789062 -171.859375 93.347656 -173.914062 98.265625 -175.34375 C 103.179688 -176.78125 108.242188 -177.5 113.453125 -177.5 C 120.265625 -177.5 126.78125 -176.300781 133 -173.90625 C 139.21875 -171.507812 144.71875 -168.164062 149.5 -163.875 C 154.289062 -159.59375 158.070312 -154.613281 160.84375 -148.9375 C 163.625 -143.269531 165.015625 -137.195312 165.015625 -130.71875 L 165.015625 -5.296875 C 165.015625 -3.953125 164.632812 -2.734375 163.875 -1.640625 C 163.125 -0.546875 162.03125 0 160.59375 0 L 124.046875 0 C 122.785156 0 121.734375 -0.546875 120.890625 -1.640625 C 120.046875 -2.734375 119.625 -3.953125 119.625 -5.296875 Z M 119.625 -5.296875 "/></g></g></g><g fill="#e4e2dd" fill-opacity="1"><g transform="translate(393.928914, 228.833106)"><g><path d="M 50.171875 -40.84375 L 94.421875 -40.84375 C 97.023438 -40.84375 98.328125 -39.203125 98.328125 -35.921875 L 98.328125 -4.921875 C 98.328125 -1.640625 97.023438 0 94.421875 0 L 9.578125 0 C 6.390625 0 4.796875 -1.722656 4.796875 -5.171875 L 4.796875 -169.296875 C 4.796875 -172.828125 6.390625 -174.59375 9.578125 -174.59375 L 93.40625 -174.59375 C 95.84375 -174.59375 97.0625 -172.828125 97.0625 -169.296875 L 97.0625 -138.671875 C 97.0625 -135.222656 95.84375 -133.5 93.40625 -133.5 L 50.171875 -133.5 L 50.171875 -107.78125 L 84.078125 -107.78125 C 85.421875 -107.78125 86.492188 -107.359375 87.296875 -106.515625 C 88.097656 -105.679688 88.5 -104.378906 88.5 -102.609375 L 88.5 -71.984375 C 88.5 -68.617188 87.023438 -66.9375 84.078125 -66.9375 L 50.171875 -66.9375 Z M 50.171875 -40.84375 "/></g></g></g></g></g></g></g></g><g clip-path="url(#4bf4556d85)"><path fill="#000000" d="M 942.03125 848.804688 C 942.03125 865.179688 955.296875 878.355469 971.582031 878.355469 C 955.207031 878.355469 942.03125 891.621094 942.03125 907.90625 C 942.03125 891.53125 928.765625 878.355469 912.480469 878.355469 C 928.765625 878.355469 942.03125 865.089844 942.03125 848.804688 Z M 942.03125 848.804688 " fill-opacity="1" fill-rule="nonzero"/></g><g clip-path="url(#28d52fdbc0)"><path fill="#000000" d="M 1098.664062 977.988281 C 1098.664062 994.363281 1111.929688 1007.539062 1128.214844 1007.539062 C 1111.835938 1007.539062 1098.664062 1020.804688 1098.664062 1037.089844 C 1098.664062 1020.714844 1085.398438 1007.539062 1069.109375 1007.539062 C 1085.398438 1007.539062 1098.664062 994.273438 1098.664062 977.988281 Z M 1098.664062 977.988281 " fill-opacity="1" fill-rule="nonzero"/></g><path fill="#000000" d="M 773.234375 938.828125 C 773.234375 948.984375 781.46875 957.21875 791.621094 957.21875 C 781.46875 957.21875 773.234375 965.453125 773.234375 975.609375 C 773.234375 965.453125 765 957.21875 754.84375 957.21875 C 765 957.21875 773.234375 948.984375 773.234375 938.828125 Z M 773.234375 938.828125 " fill-opacity="1" fill-rule="nonzero"/><path fill="#000000" d="M 785.125 1130.683594 C 785.125 1137.273438 790.433594 1142.578125 797.019531 1142.578125 C 790.433594 1142.578125 785.125 1147.882812 785.125 1154.472656 C 785.125 1147.882812 779.820312 1142.578125 773.234375 1142.578125 C 779.820312 1142.578125 785.125 1137.273438 785.125 1130.683594 Z M 785.125 1130.683594 " fill-opacity="1" fill-rule="nonzero"/><path fill="#000000" d="M 969.480469 966.003906 C 969.480469 972.589844 974.785156 977.894531 981.371094 977.894531 C 974.785156 977.894531 969.480469 983.203125 969.480469 989.789062 C 969.480469 983.203125 964.171875 977.894531 957.585938 977.894531 C 964.171875 977.988281 969.480469 972.589844 969.480469 966.003906 Z M 969.480469 966.003906 " fill-opacity="1" fill-rule="nonzero"/><g clip-path="url(#569760ddba)"><path fill="#000000" d="M 623.007812 1286.125 C 633.070312 1264.441406 623.738281 1238.644531 602.054688 1228.578125 C 623.738281 1238.644531 649.539062 1229.3125 659.601562 1207.628906 C 649.539062 1229.3125 658.871094 1255.109375 680.554688 1265.175781 C 658.871094 1255.109375 633.070312 1264.441406 623.007812 1286.125 Z M 623.007812 1286.125 " fill-opacity="1" fill-rule="nonzero"/></g><path fill="#000000" d="M 534.167969 998.664062 C 534.167969 987.226562 524.929688 977.988281 513.492188 977.988281 C 524.929688 977.988281 534.167969 968.746094 534.167969 957.3125 C 534.167969 968.746094 543.410156 977.988281 554.847656 977.988281 C 543.410156 977.988281 534.167969 987.226562 534.167969 998.664062 Z M 534.167969 998.664062 " fill-opacity="1" fill-rule="nonzero"/><path fill="#000000" d="M 1036.449219 955.753906 C 1032.515625 944.226562 997.476562 944.410156 943.679688 954.109375 C 1015.679688 939.289062 1063.804688 937.183594 1068.652344 951.457031 C 1077.527344 977.53125 939.195312 1048.070312 759.691406 1109.09375 C 580.1875 1170.117188 427.492188 1198.480469 418.617188 1172.402344 C 413.769531 1158.132812 453.109375 1130.5 519.257812 1098.296875 C 470.675781 1123.367188 442.769531 1144.589844 446.703125 1156.117188 C 454.757812 1179.722656 593.273438 1154.015625 756.125 1098.664062 C 918.976562 1043.402344 1044.5 979.359375 1036.449219 955.753906 Z M 1036.449219 955.753906 " fill-opacity="1" fill-rule="nonzero"/><path fill="#000000" d="M 922.269531 986.40625 C 919.890625 979.359375 898.574219 979.542969 865.914062 985.398438 C 909.644531 976.339844 938.828125 975.152344 941.757812 983.84375 C 947.15625 999.671875 863.167969 1042.488281 754.113281 1079.632812 C 645.054688 1116.6875 552.375 1133.886719 546.976562 1118.058594 C 544.050781 1109.367188 567.929688 1092.625 608.09375 1073.046875 C 578.632812 1088.324219 561.617188 1101.132812 563.996094 1108.179688 C 568.84375 1122.542969 653.015625 1106.898438 751.914062 1073.320312 C 850.90625 1039.652344 927.117188 1000.769531 922.269531 986.40625 Z M 922.269531 986.40625 " fill-opacity="1" fill-rule="nonzero"/><path fill="#000000" d="M 835.8125 1009.917969 C 834.621094 1006.257812 823.550781 1006.351562 806.625 1009.367188 C 829.316406 1004.703125 844.410156 1004.0625 845.96875 1008.546875 C 848.710938 1016.78125 805.253906 1038.921875 748.804688 1058.132812 C 692.355469 1077.347656 644.324219 1086.21875 641.488281 1078.078125 C 639.933594 1073.59375 652.375 1064.902344 673.144531 1054.746094 C 657.863281 1062.617188 649.082031 1069.292969 650.269531 1072.953125 C 652.832031 1080.363281 696.382812 1072.3125 747.617188 1054.839844 C 798.851562 1037.457031 838.28125 1017.328125 835.8125 1009.917969 Z M 835.8125 1009.917969 " fill-opacity="1" fill-rule="nonzero"/></svg>