<svg xmlns="http://www.w3.org/2000/svg" xmlns:xlink="http://www.w3.org/1999/xlink" width="2000" zoomAndPan="magnify" viewBox="0 0 1500 1499.999933" height="2000" preserveAspectRatio="xMidYMid meet" version="1.0"><defs><g/><clipPath id="33d75af8cf"><path d="M 7 33 L 1252 33 L 1252 567 L 7 567 Z M 7 33 " clip-rule="nonzero"/></clipPath><clipPath id="d3c534fe27"><path d="M -16.910156 -29.738281 L 1280.746094 43.625 L 1246.4375 650.433594 L -51.214844 577.070312 Z M -16.910156 -29.738281 " clip-rule="nonzero"/></clipPath><clipPath id="b0545088ad"><path d="M -16.910156 -29.738281 L 1280.746094 43.625 L 1246.4375 650.433594 L -51.214844 577.070312 Z M -16.910156 -29.738281 " clip-rule="nonzero"/></clipPath><clipPath id="3b32416b61"><path d="M 236 586 L 1002 586 L 1002 883.398438 L 236 883.398438 Z M 236 586 " clip-rule="nonzero"/></clipPath><clipPath id="ff5468322f"><rect x="0" width="766" y="0" height="298"/></clipPath><clipPath id="6c2aed307f"><rect x="0" width="1263" y="0" height="884"/></clipPath><clipPath id="d362ae7e4f"><path d="M 891 843.308594 L 951 843.308594 L 951 903 L 891 903 Z M 891 843.308594 " clip-rule="nonzero"/></clipPath><clipPath id="c2833fa2c4"><path d="M 1048 972 L 1107.523438 972 L 1107.523438 1032 L 1048 1032 Z M 1048 972 " clip-rule="nonzero"/></clipPath><clipPath id="aaeaf66adb"><path d="M 581 1202 L 660 1202 L 660 1280.558594 L 581 1280.558594 Z M 581 1202 " clip-rule="nonzero"/></clipPath></defs><g transform="matrix(1, 0, 0, 1, 135, 319)"><g clip-path="url(#6c2aed307f)"><g clip-path="url(#33d75af8cf)"><g clip-path="url(#d3c534fe27)"><g clip-path="url(#b0545088ad)"><path fill="#e4e2dd" d="M 764.496094 290.53125 C 737.597656 231.277344 708.636719 178.300781 634.089844 159.171875 C 534.988281 133.542969 444.816406 206.203125 420.371094 291.953125 C 417.71875 301.175781 405.410156 353.097656 413.886719 357.625 C 419.464844 360.710938 586.40625 339.472656 602.0625 337.585938 C 652.234375 331.902344 708.796875 326.152344 758.476562 317.882812 C 780.414062 314.222656 773.386719 310.417969 764.496094 290.53125 Z M 628.269531 514.605469 C 610.488281 516.371094 591.71875 516.800781 574.324219 519.226562 C 620.464844 532.0625 706.855469 503.710938 651.445312 511.65625 C 643.714844 512.710938 636.199219 513.777344 628.269531 514.605469 Z M 820.929688 434.109375 C 737.453125 546.558594 596.441406 583.960938 468.699219 514.746094 C 410.613281 483.34375 459.660156 516.367188 479.96875 526.460938 C 610.496094 591.570312 782.433594 538.449219 838.757812 408.914062 C 848.535156 386.671875 823.007812 431.242188 820.929688 434.109375 Z M 858.070312 300.933594 C 897.113281 284.820312 856.59375 266.765625 832.789062 273.300781 C 810.082031 279.261719 805.863281 274.761719 792.941406 254.644531 C 762.796875 207.5625 752.925781 178.671875 695.058594 150.902344 C 570.1875 91.222656 440.210938 163.335938 409.960938 283.90625 C 398.410156 329.90625 430.675781 249.074219 432.34375 245.972656 C 476.632812 159.644531 581.1875 122.734375 674.234375 165.0625 C 758.976562 203.515625 748.402344 292.601562 806.695312 305.269531 C 824.378906 309.039062 840.945312 306.144531 858.070312 300.933594 Z M 1250.730469 254.960938 C 1176.332031 289.742188 1023.582031 301.128906 937.398438 314.578125 C 846.46875 329.035156 876.527344 377.601562 833.261719 442.046875 C 723.238281 605.828125 489.847656 607.972656 380.46875 447.550781 C 343.664062 393.917969 341.839844 388.488281 267.125 398.75 C 258.097656 400.15625 130.648438 420.007812 141.261719 401.859375 C 145.515625 394.433594 135.957031 397.726562 127.367188 398.945312 C 126.71875 399.121094 -42.527344 423.425781 22.296875 407.277344 C 74.585938 394.257812 203.25 386.832031 235.011719 375.207031 C 253.082031 368.34375 119.460938 388.058594 206.726562 366.789062 C 226.601562 361.949219 294.253906 344.683594 305.925781 330.429688 C 305.113281 329.746094 212.613281 368.1875 203.59375 361.925781 C 204.066406 361.101562 240.234375 343.121094 246.21875 338.984375 C 331.941406 280.988281 316.207031 144.820312 470.074219 64.6875 C 585.753906 4.335938 732.042969 35.613281 814.988281 124.664062 C 854.367188 166.726562 871.96875 213.308594 905.746094 252.714844 C 950.101562 304.644531 1269.804688 245.390625 1250.730469 254.960938 Z M 754.464844 343.648438 C 706.878906 348.839844 660.160156 357.488281 611.085938 362.597656 C 588.160156 364.921875 419.507812 378.820312 411.625 390.089844 C 402.140625 403.402344 451.917969 434.761719 462.699219 440.058594 C 564.054688 489.886719 700.582031 486.527344 766.773438 385.882812 C 779.109375 367.410156 795.734375 340.867188 760.445312 343.347656 Z M 418.085938 140.144531 C 381.824219 159.824219 334.734375 250.46875 331.804688 287.15625 C 330.359375 305.183594 363.988281 219.101562 367.355469 212.261719 C 378.21875 189.65625 416.558594 148.363281 419.363281 140.214844 Z M 669.730469 78.957031 C 649.367188 66.089844 572.863281 70.285156 547.683594 74.828125 C 516.246094 80.71875 453.042969 105.902344 529.523438 87.007812 C 590.027344 71.894531 590.839844 76.414062 651.359375 79.835938 C 653.695312 79.96875 668.949219 81.46875 669.730469 78.957031 Z M 669.730469 78.957031 " fill-opacity="1" fill-rule="evenodd"/></g></g></g><g clip-path="url(#3b32416b61)"><g transform="matrix(1, 0, 0, 1, 236, 586)"><g clip-path="url(#ff5468322f)"><g fill="#e4e2dd" fill-opacity="1"><g transform="translate(2.280802, 228.833106)"><g><path d="M 62.78125 -84.328125 L 62.78125 -126.4375 C 62.78125 -128.789062 62.019531 -130.554688 60.5 -131.734375 C 58.988281 -132.910156 57.1875 -133.5 55.09375 -133.5 L 50.171875 -133.5 L 50.171875 -77.28125 L 55.21875 -77.28125 C 57.394531 -77.28125 59.195312 -77.953125 60.625 -79.296875 C 62.0625 -80.640625 62.78125 -82.316406 62.78125 -84.328125 Z M 4.796875 -5.171875 L 4.796875 -169.296875 C 4.796875 -172.828125 6.390625 -174.59375 9.578125 -174.59375 L 58.875 -174.59375 C 65.757812 -174.59375 72.1875 -173.375 78.15625 -170.9375 C 84.125 -168.5 89.351562 -165.132812 93.84375 -160.84375 C 98.34375 -156.5625 101.851562 -151.5625 104.375 -145.84375 C 106.894531 -140.132812 108.15625 -134.003906 108.15625 -127.453125 L 108.15625 -84.453125 C 108.15625 -77.898438 106.894531 -71.742188 104.375 -65.984375 C 101.851562 -60.234375 98.34375 -55.128906 93.84375 -50.671875 C 89.351562 -46.222656 84.125 -42.738281 78.15625 -40.21875 C 72.1875 -37.695312 65.757812 -36.4375 58.875 -36.4375 L 50.171875 -36.4375 L 50.171875 -5.171875 C 50.171875 -1.722656 48.617188 0 45.515625 0 L 9.578125 0 C 6.390625 0 4.796875 -1.722656 4.796875 -5.171875 Z M 4.796875 -5.171875 "/></g></g></g><g fill="#e4e2dd" fill-opacity="1"><g transform="translate(111.815678, 228.833106)"><g><path d="M 55.09375 -133.5 L 50.171875 -133.5 L 50.171875 -96.5625 L 55.21875 -96.5625 C 57.394531 -96.5625 59.195312 -97.210938 60.625 -98.515625 C 62.0625 -99.816406 62.78125 -101.476562 62.78125 -103.5 L 62.78125 -126.4375 C 62.78125 -128.789062 62.019531 -130.554688 60.5 -131.734375 C 58.988281 -132.910156 57.1875 -133.5 55.09375 -133.5 Z M 102.984375 -0.125 L 69.96875 -0.125 C 68.113281 -0.125 66.472656 -0.691406 65.046875 -1.828125 C 63.617188 -2.960938 62.90625 -4.582031 62.90625 -6.6875 L 62.90625 -33.53125 C 62.90625 -41.007812 61.894531 -46.953125 59.875 -51.359375 C 57.863281 -55.773438 54.628906 -58.828125 50.171875 -60.515625 L 50.171875 -5.171875 C 50.171875 -1.722656 48.617188 0 45.515625 0 L 9.578125 0 C 6.390625 0 4.796875 -1.722656 4.796875 -5.171875 L 4.796875 -169.296875 C 4.796875 -172.828125 6.390625 -174.59375 9.578125 -174.59375 L 58.875 -174.59375 C 65.757812 -174.59375 72.1875 -173.332031 78.15625 -170.8125 C 84.125 -168.289062 89.351562 -164.800781 93.84375 -160.34375 C 98.34375 -155.894531 101.851562 -150.769531 104.375 -144.96875 C 106.894531 -139.164062 108.15625 -132.988281 108.15625 -126.4375 L 108.15625 -107.40625 C 108.15625 -100.757812 106.769531 -94.976562 104 -90.0625 C 101.226562 -85.15625 97.695312 -80.976562 93.40625 -77.53125 C 98.363281 -72.570312 102.0625 -66.117188 104.5 -58.171875 C 106.9375 -50.234375 108.15625 -40.378906 108.15625 -28.609375 L 108.15625 -6.171875 C 108.15625 -4.910156 107.773438 -3.585938 107.015625 -2.203125 C 106.265625 -0.816406 104.921875 -0.125 102.984375 -0.125 Z M 102.984375 -0.125 "/></g></g></g><g fill="#e4e2dd" fill-opacity="1"><g transform="translate(223.619402, 228.833106)"><g><path d="M 106.140625 -130.71875 L 106.140625 -43.875 C 106.140625 -36.21875 104.753906 -29.488281 101.984375 -23.6875 C 99.210938 -17.894531 95.410156 -13.023438 90.578125 -9.078125 C 85.742188 -5.128906 80.238281 -2.144531 74.0625 -0.125 C 67.882812 1.894531 61.347656 2.90625 54.453125 2.90625 C 47.648438 2.90625 41.160156 1.851562 34.984375 -0.25 C 28.804688 -2.351562 23.320312 -5.421875 18.53125 -9.453125 C 13.738281 -13.484375 9.957031 -18.378906 7.1875 -24.140625 C 4.414062 -29.898438 3.03125 -36.476562 3.03125 -43.875 L 3.03125 -130.71875 C 3.03125 -138.28125 4.414062 -144.960938 7.1875 -150.765625 C 9.957031 -156.566406 13.71875 -161.441406 18.46875 -165.390625 C 23.21875 -169.335938 28.679688 -172.316406 34.859375 -174.328125 C 41.035156 -176.347656 47.523438 -177.359375 54.328125 -177.359375 C 61.222656 -177.359375 67.78125 -176.367188 74 -174.390625 C 80.21875 -172.421875 85.742188 -169.460938 90.578125 -165.515625 C 95.410156 -161.566406 99.210938 -156.691406 101.984375 -150.890625 C 104.753906 -145.097656 106.140625 -138.375 106.140625 -130.71875 Z M 54.703125 -136.53125 C 52.265625 -136.53125 50.601562 -135.601562 49.71875 -133.75 C 48.84375 -131.90625 48.40625 -129.972656 48.40625 -127.953125 L 48.40625 -46.515625 C 48.40625 -44.410156 48.78125 -42.472656 49.53125 -40.703125 C 50.289062 -38.941406 51.929688 -38.0625 54.453125 -38.0625 C 57.054688 -38.0625 58.757812 -38.773438 59.5625 -40.203125 C 60.363281 -41.640625 60.765625 -43.410156 60.765625 -45.515625 L 60.765625 -127.953125 C 60.765625 -129.972656 60.363281 -131.90625 59.5625 -133.75 C 58.757812 -135.601562 57.140625 -136.53125 54.703125 -136.53125 Z M 54.703125 -136.53125 "/></g></g></g><g fill="#e4e2dd" fill-opacity="1"><g transform="translate(332.776093, 228.833106)"><g><path d="M 50.171875 -133.5 L 50.171875 -40.84375 L 55.59375 -40.84375 C 57.613281 -41.007812 59.273438 -41.804688 60.578125 -43.234375 C 61.878906 -44.660156 62.53125 -46.382812 62.53125 -48.40625 L 62.53125 -125.5625 C 62.53125 -129 61.769531 -131.179688 60.25 -132.109375 C 58.738281 -133.035156 56.976562 -133.5 54.96875 -133.5 Z M 4.796875 -5.171875 L 4.796875 -169.296875 C 4.796875 -172.828125 6.390625 -174.59375 9.578125 -174.59375 L 57.609375 -174.59375 C 64.503906 -174.59375 70.972656 -173.625 77.015625 -171.6875 C 83.066406 -169.757812 88.40625 -166.84375 93.03125 -162.9375 C 97.65625 -159.03125 101.289062 -154.15625 103.9375 -148.3125 C 106.582031 -142.46875 107.90625 -135.554688 107.90625 -127.578125 L 107.90625 -46.890625 C 107.90625 -38.910156 106.582031 -31.976562 103.9375 -26.09375 C 101.289062 -20.207031 97.65625 -15.332031 93.03125 -11.46875 C 88.40625 -7.601562 83.046875 -4.722656 76.953125 -2.828125 C 70.867188 -0.941406 64.421875 0 57.609375 0 L 9.578125 0 C 6.390625 0 4.796875 -1.722656 4.796875 -5.171875 Z M 4.796875 -5.171875 "/></g></g></g><g fill="#e4e2dd" fill-opacity="1"><g transform="translate(443.697446, 228.833106)"><g><path d="M 61.890625 -46.515625 L 61.890625 -169.296875 C 61.890625 -170.722656 62.3125 -171.960938 63.15625 -173.015625 C 64 -174.066406 65.050781 -174.59375 66.3125 -174.59375 L 102.859375 -174.59375 C 104.296875 -174.59375 105.390625 -174.046875 106.140625 -172.953125 C 106.898438 -171.859375 107.28125 -170.640625 107.28125 -169.296875 L 107.28125 -43.875 C 107.28125 -37.394531 105.890625 -31.316406 103.109375 -25.640625 C 100.335938 -19.972656 96.554688 -14.992188 91.765625 -10.703125 C 86.984375 -6.421875 81.476562 -3.082031 75.25 -0.6875 C 69.03125 1.707031 62.519531 2.90625 55.71875 2.90625 C 48.914062 2.90625 42.425781 1.707031 36.25 -0.6875 C 30.070312 -3.082031 24.585938 -6.421875 19.796875 -10.703125 C 15.003906 -14.992188 11.21875 -19.972656 8.4375 -25.640625 C 5.664062 -31.316406 4.28125 -37.394531 4.28125 -43.875 L 4.28125 -169.296875 C 4.28125 -170.640625 4.613281 -171.859375 5.28125 -172.953125 C 5.957031 -174.046875 6.757812 -174.59375 7.6875 -174.59375 L 45.640625 -174.59375 C 47.316406 -174.59375 48.40625 -174.066406 48.90625 -173.015625 C 49.414062 -171.960938 49.671875 -170.722656 49.671875 -169.296875 L 49.671875 -46.515625 C 49.671875 -44.410156 50.085938 -42.472656 50.921875 -40.703125 C 51.765625 -38.941406 53.40625 -38.0625 55.84375 -38.0625 C 58.28125 -38.0625 59.894531 -38.941406 60.6875 -40.703125 C 61.488281 -42.472656 61.890625 -44.410156 61.890625 -46.515625 Z M 61.890625 -46.515625 "/></g></g></g><g fill="#e4e2dd" fill-opacity="1"><g transform="translate(555.249077, 228.833106)"><g><path d="M 103.125 -129.71875 L 103.125 -115.46875 C 103.125 -113.363281 102.828125 -111.847656 102.234375 -110.921875 C 101.648438 -110.003906 100.429688 -109.546875 98.578125 -109.546875 L 65.046875 -109.546875 C 63.453125 -109.546875 62.359375 -109.960938 61.765625 -110.796875 C 61.179688 -111.640625 60.890625 -112.945312 60.890625 -114.71875 L 60.890625 -128.328125 C 60.890625 -129.421875 60.71875 -130.597656 60.375 -131.859375 C 60.039062 -133.117188 59.429688 -134.210938 58.546875 -135.140625 C 57.671875 -136.066406 56.4375 -136.53125 54.84375 -136.53125 C 52.65625 -136.53125 51.035156 -135.726562 49.984375 -134.125 C 48.929688 -132.53125 48.40625 -130.722656 48.40625 -128.703125 L 48.40625 -46.515625 C 48.40625 -44.410156 48.820312 -42.472656 49.65625 -40.703125 C 50.5 -38.941406 52.226562 -38.0625 54.84375 -38.0625 C 57.78125 -38.0625 59.625 -38.941406 60.375 -40.703125 C 61.132812 -42.472656 61.515625 -44.410156 61.515625 -46.515625 L 61.515625 -64.421875 C 61.515625 -66.347656 61.785156 -67.664062 62.328125 -68.375 C 62.878906 -69.09375 63.953125 -69.453125 65.546875 -69.453125 L 99.203125 -69.453125 C 100.972656 -69.453125 102.191406 -69.15625 102.859375 -68.5625 C 103.535156 -67.976562 103.875 -66.722656 103.875 -64.796875 L 103.875 -43.875 C 103.875 -36.3125 102.59375 -29.609375 100.03125 -23.765625 C 97.46875 -17.921875 93.9375 -13.023438 89.4375 -9.078125 C 84.945312 -5.128906 79.71875 -2.144531 73.75 -0.125 C 67.78125 1.894531 61.347656 2.90625 54.453125 2.90625 C 47.648438 2.90625 41.160156 1.894531 34.984375 -0.125 C 28.804688 -2.144531 23.320312 -5.128906 18.53125 -9.078125 C 13.738281 -13.023438 9.957031 -17.921875 7.1875 -23.765625 C 4.414062 -29.609375 3.03125 -36.3125 3.03125 -43.875 L 3.03125 -130.71875 C 3.03125 -137.445312 4.269531 -143.644531 6.75 -149.3125 C 9.226562 -154.988281 12.753906 -159.925781 17.328125 -164.125 C 21.910156 -168.332031 27.351562 -171.585938 33.65625 -173.890625 C 39.957031 -176.203125 46.890625 -177.359375 54.453125 -177.359375 C 63.273438 -177.359375 70.773438 -175.972656 76.953125 -173.203125 C 83.128906 -170.429688 88.148438 -166.753906 92.015625 -162.171875 C 95.890625 -157.597656 98.707031 -152.492188 100.46875 -146.859375 C 102.238281 -141.234375 103.125 -135.519531 103.125 -129.71875 Z M 103.125 -129.71875 "/></g></g></g><g fill="#e4e2dd" fill-opacity="1"><g transform="translate(661.506734, 228.833106)"><g><path d="M 91.015625 -133.5 L 69.84375 -133.5 L 69.84375 -4.921875 C 69.84375 -1.640625 68.535156 0 65.921875 0 L 28.359375 0 C 25.753906 0 24.453125 -1.640625 24.453125 -4.921875 L 24.453125 -133.5 L 3.15625 -133.5 C 0.550781 -133.5 -0.75 -135.222656 -0.75 -138.671875 L -0.75 -169.296875 C -0.75 -172.828125 0.550781 -174.59375 3.15625 -174.59375 L 91.015625 -174.59375 C 93.703125 -174.59375 95.046875 -172.828125 95.046875 -169.296875 L 95.046875 -138.671875 C 95.046875 -135.222656 93.703125 -133.5 91.015625 -133.5 Z M 91.015625 -133.5 "/></g></g></g></g></g></g></g></g><g clip-path="url(#d362ae7e4f)"><path fill="#000000" d="M 921.039062 843.441406 C 921.039062 859.816406 934.304688 872.992188 950.589844 872.992188 C 934.210938 872.992188 921.039062 886.257812 921.039062 902.542969 C 921.039062 886.167969 907.773438 872.992188 891.488281 872.992188 C 907.773438 872.992188 921.039062 859.726562 921.039062 843.441406 Z M 921.039062 843.441406 " fill-opacity="1" fill-rule="nonzero"/></g><g clip-path="url(#c2833fa2c4)"><path fill="#000000" d="M 1077.667969 972.625 C 1077.667969 989 1090.933594 1002.175781 1107.21875 1002.175781 C 1090.84375 1002.175781 1077.667969 1015.441406 1077.667969 1031.726562 C 1077.667969 1015.351562 1064.402344 1002.175781 1048.117188 1002.175781 C 1064.402344 1002.175781 1077.667969 988.910156 1077.667969 972.625 Z M 1077.667969 972.625 " fill-opacity="1" fill-rule="nonzero"/></g><path fill="#000000" d="M 752.238281 933.46875 C 752.238281 943.621094 760.472656 951.855469 770.628906 951.855469 C 760.472656 951.855469 752.238281 960.089844 752.238281 970.246094 C 752.238281 960.089844 744.003906 951.855469 733.847656 951.855469 C 744.003906 951.855469 752.238281 943.621094 752.238281 933.46875 Z M 752.238281 933.46875 " fill-opacity="1" fill-rule="nonzero"/><path fill="#000000" d="M 764.132812 1125.320312 C 764.132812 1131.910156 769.4375 1137.214844 776.027344 1137.214844 C 769.4375 1137.214844 764.132812 1142.523438 764.132812 1149.109375 C 764.132812 1142.523438 758.824219 1137.214844 752.238281 1137.214844 C 758.824219 1137.214844 764.132812 1131.910156 764.132812 1125.320312 Z M 764.132812 1125.320312 " fill-opacity="1" fill-rule="nonzero"/><path fill="#000000" d="M 948.484375 960.640625 C 948.484375 967.226562 953.792969 972.535156 960.378906 972.535156 C 953.792969 972.535156 948.484375 977.839844 948.484375 984.425781 C 948.484375 977.839844 943.179688 972.535156 936.589844 972.535156 C 943.179688 972.625 948.484375 967.226562 948.484375 960.640625 Z M 948.484375 960.640625 " fill-opacity="1" fill-rule="nonzero"/><g clip-path="url(#aaeaf66adb)"><path fill="#000000" d="M 602.011719 1280.761719 C 612.074219 1259.082031 602.742188 1233.28125 581.0625 1223.214844 C 602.742188 1233.28125 628.542969 1223.949219 638.609375 1202.265625 C 628.542969 1223.949219 637.875 1249.75 659.558594 1259.8125 C 637.875 1249.75 612.074219 1259.082031 602.011719 1280.761719 Z M 602.011719 1280.761719 " fill-opacity="1" fill-rule="nonzero"/></g><path fill="#000000" d="M 513.175781 993.300781 C 513.175781 981.867188 503.933594 972.625 492.5 972.625 C 503.933594 972.625 513.175781 963.382812 513.175781 951.949219 C 513.175781 963.382812 522.414062 972.625 533.851562 972.625 C 522.414062 972.625 513.175781 981.867188 513.175781 993.300781 Z M 513.175781 993.300781 " fill-opacity="1" fill-rule="nonzero"/><path fill="#000000" d="M 1015.457031 950.394531 C 1011.519531 938.863281 976.480469 939.046875 922.683594 948.746094 C 994.6875 933.925781 1042.8125 931.820312 1047.660156 946.09375 C 1056.535156 972.167969 918.203125 1042.707031 738.699219 1103.730469 C 559.195312 1164.753906 406.496094 1193.117188 397.625 1167.042969 C 392.773438 1152.769531 432.113281 1125.140625 498.261719 1092.933594 C 449.679688 1118.003906 421.777344 1139.226562 425.710938 1150.757812 C 433.761719 1174.359375 572.277344 1148.652344 735.128906 1093.300781 C 897.980469 1038.039062 1023.507812 973.996094 1015.457031 950.394531 Z M 1015.457031 950.394531 " fill-opacity="1" fill-rule="nonzero"/><path fill="#000000" d="M 901.277344 981.042969 C 898.898438 973.996094 877.578125 974.179688 844.917969 980.035156 C 888.652344 970.976562 917.835938 969.789062 920.761719 978.480469 C 926.160156 994.308594 842.171875 1037.125 733.117188 1074.269531 C 624.0625 1111.324219 531.382812 1128.523438 525.984375 1112.695312 C 523.054688 1104.003906 546.933594 1087.261719 587.097656 1067.683594 C 557.640625 1082.960938 540.621094 1095.769531 543 1102.816406 C 547.851562 1117.179688 632.019531 1101.535156 730.921875 1067.957031 C 829.914062 1034.289062 906.125 995.40625 901.277344 981.042969 Z M 901.277344 981.042969 " fill-opacity="1" fill-rule="nonzero"/><path fill="#000000" d="M 814.816406 1004.554688 C 813.628906 1000.894531 802.558594 1000.988281 785.632812 1004.007812 C 808.320312 999.339844 823.417969 998.699219 824.972656 1003.183594 C 827.71875 1011.417969 784.261719 1033.558594 727.8125 1052.769531 C 671.363281 1071.984375 623.328125 1080.859375 620.492188 1072.714844 C 618.9375 1068.230469 631.378906 1059.539062 652.148438 1049.386719 C 636.871094 1057.253906 628.085938 1063.933594 629.277344 1067.589844 C 631.839844 1075.003906 675.386719 1066.953125 726.621094 1049.476562 C 777.855469 1032.09375 817.289062 1011.964844 814.816406 1004.554688 Z M 814.816406 1004.554688 " fill-opacity="1" fill-rule="nonzero"/></svg>