<svg xmlns="http://www.w3.org/2000/svg" xmlns:xlink="http://www.w3.org/1999/xlink" width="2000" zoomAndPan="magnify" viewBox="0 0 1500 1499.999933" height="2000" preserveAspectRatio="xMidYMid meet" version="1.0"><defs><g/><clipPath id="086fe0a420"><path d="M 7 33 L 1252 33 L 1252 567 L 7 567 Z M 7 33 " clip-rule="nonzero"/></clipPath><clipPath id="b9e7b683dc"><path d="M -16.910156 -29.738281 L 1280.746094 43.625 L 1246.4375 650.433594 L -51.214844 577.070312 Z M -16.910156 -29.738281 " clip-rule="nonzero"/></clipPath><clipPath id="44c0a71d07"><path d="M -16.910156 -29.738281 L 1280.746094 43.625 L 1246.4375 650.433594 L -51.214844 577.070312 Z M -16.910156 -29.738281 " clip-rule="nonzero"/></clipPath><clipPath id="e82c44b7b7"><path d="M 373 586 L 853 586 L 853 883.398438 L 373 883.398438 Z M 373 586 " clip-rule="nonzero"/></clipPath><clipPath id="23c50752b7"><rect x="0" width="480" y="0" height="298"/></clipPath><clipPath id="9883e0f8e9"><rect x="0" width="1263" y="0" height="884"/></clipPath><clipPath id="1f0ab5ef44"><path d="M 924 867.378906 L 984 867.378906 L 984 927 L 924 927 Z M 924 867.378906 " clip-rule="nonzero"/></clipPath><clipPath id="82a677a146"><path d="M 1081 996 L 1140.589844 996 L 1140.589844 1056 L 1081 1056 Z M 1081 996 " clip-rule="nonzero"/></clipPath><clipPath id="9d7c0b9265"><path d="M 614 1226 L 693 1226 L 693 1304.628906 L 614 1304.628906 Z M 614 1226 " clip-rule="nonzero"/></clipPath></defs><g transform="matrix(1, 0, 0, 1, 135, 319)"><g clip-path="url(#9883e0f8e9)"><g clip-path="url(#086fe0a420)"><g clip-path="url(#b9e7b683dc)"><g clip-path="url(#44c0a71d07)"><path fill="#e4e2dd" d="M 764.496094 290.53125 C 737.597656 231.277344 708.636719 178.300781 634.089844 159.171875 C 534.988281 133.542969 444.816406 206.203125 420.371094 291.953125 C 417.71875 301.175781 405.410156 353.097656 413.886719 357.625 C 419.464844 360.710938 586.40625 339.472656 602.0625 337.585938 C 652.234375 331.902344 708.796875 326.152344 758.476562 317.882812 C 780.414062 314.222656 773.386719 310.417969 764.496094 290.53125 Z M 628.269531 514.605469 C 610.488281 516.371094 591.71875 516.800781 574.324219 519.226562 C 620.464844 532.0625 706.855469 503.710938 651.445312 511.65625 C 643.714844 512.710938 636.199219 513.777344 628.269531 514.605469 Z M 820.929688 434.109375 C 737.453125 546.558594 596.441406 583.960938 468.699219 514.746094 C 410.613281 483.34375 459.660156 516.367188 479.96875 526.460938 C 610.496094 591.570312 782.433594 538.449219 838.757812 408.914062 C 848.535156 386.671875 823.007812 431.242188 820.929688 434.109375 Z M 858.070312 300.933594 C 897.113281 284.820312 856.59375 266.765625 832.789062 273.300781 C 810.082031 279.261719 805.863281 274.761719 792.941406 254.644531 C 762.796875 207.5625 752.925781 178.671875 695.058594 150.902344 C 570.1875 91.222656 440.210938 163.335938 409.960938 283.90625 C 398.410156 329.90625 430.675781 249.074219 432.34375 245.972656 C 476.632812 159.644531 581.1875 122.734375 674.234375 165.0625 C 758.976562 203.515625 748.402344 292.601562 806.695312 305.269531 C 824.378906 309.039062 840.945312 306.144531 858.070312 300.933594 Z M 1250.730469 254.960938 C 1176.332031 289.742188 1023.582031 301.128906 937.398438 314.578125 C 846.46875 329.035156 876.527344 377.601562 833.261719 442.046875 C 723.238281 605.828125 489.847656 607.972656 380.46875 447.550781 C 343.664062 393.917969 341.839844 388.488281 267.125 398.75 C 258.097656 400.15625 130.648438 420.007812 141.261719 401.859375 C 145.515625 394.433594 135.957031 397.726562 127.367188 398.945312 C 126.71875 399.121094 -42.527344 423.425781 22.296875 407.277344 C 74.585938 394.257812 203.25 386.832031 235.011719 375.207031 C 253.082031 368.34375 119.460938 388.058594 206.726562 366.789062 C 226.601562 361.949219 294.253906 344.683594 305.925781 330.429688 C 305.113281 329.746094 212.613281 368.1875 203.59375 361.925781 C 204.066406 361.101562 240.234375 343.121094 246.21875 338.984375 C 331.941406 280.988281 316.207031 144.820312 470.074219 64.6875 C 585.753906 4.335938 732.042969 35.613281 814.988281 124.664062 C 854.367188 166.726562 871.96875 213.308594 905.746094 252.714844 C 950.101562 304.644531 1269.804688 245.390625 1250.730469 254.960938 Z M 754.464844 343.648438 C 706.878906 348.839844 660.160156 357.488281 611.085938 362.597656 C 588.160156 364.921875 419.507812 378.820312 411.625 390.089844 C 402.140625 403.402344 451.917969 434.761719 462.699219 440.058594 C 564.054688 489.886719 700.582031 486.527344 766.773438 385.882812 C 779.109375 367.410156 795.734375 340.867188 760.445312 343.347656 Z M 418.085938 140.144531 C 381.824219 159.824219 334.734375 250.46875 331.804688 287.15625 C 330.359375 305.183594 363.988281 219.101562 367.355469 212.261719 C 378.21875 189.65625 416.558594 148.363281 419.363281 140.214844 Z M 669.730469 78.957031 C 649.367188 66.089844 572.863281 70.285156 547.683594 74.828125 C 516.246094 80.71875 453.042969 105.902344 529.523438 87.007812 C 590.027344 71.894531 590.839844 76.414062 651.359375 79.835938 C 653.695312 79.96875 668.949219 81.46875 669.730469 78.957031 Z M 669.730469 78.957031 " fill-opacity="1" fill-rule="evenodd"/></g></g></g><g clip-path="url(#e82c44b7b7)"><g transform="matrix(1, 0, 0, 1, 373, 586)"><g clip-path="url(#23c50752b7)"><g fill="#e4e2dd" fill-opacity="1"><g transform="translate(5.632796, 228.833106)"><g><path d="M 57.609375 -109.796875 C 63.328125 -105.679688 68.8125 -101.4375 74.0625 -97.0625 C 79.3125 -92.695312 83.972656 -87.945312 88.046875 -82.8125 C 92.128906 -77.6875 95.347656 -71.929688 97.703125 -65.546875 C 100.054688 -59.160156 101.234375 -51.9375 101.234375 -43.875 C 101.234375 -37.476562 100.054688 -31.441406 97.703125 -25.765625 C 95.347656 -20.097656 91.984375 -15.117188 87.609375 -10.828125 C 83.242188 -6.546875 77.972656 -3.1875 71.796875 -0.75 C 65.617188 1.6875 58.660156 2.90625 50.921875 2.90625 C 41.847656 2.90625 34.160156 1.476562 27.859375 -1.375 C 21.554688 -4.238281 16.472656 -8.046875 12.609375 -12.796875 C 8.742188 -17.546875 5.925781 -22.734375 4.15625 -28.359375 C 2.394531 -33.992188 1.515625 -39.582031 1.515625 -45.125 L 1.515625 -51.9375 C 1.515625 -54.625 1.804688 -56.472656 2.390625 -57.484375 C 2.984375 -58.492188 4.285156 -59 6.296875 -59 L 39.078125 -59 C 41.265625 -59 42.628906 -58.597656 43.171875 -57.796875 C 43.722656 -56.992188 44 -55.460938 44 -53.203125 L 44 -47.78125 C 44 -44 44.710938 -41.429688 46.140625 -40.078125 C 47.566406 -38.734375 49.332031 -38.0625 51.4375 -38.0625 C 53.363281 -38.0625 54.976562 -38.734375 56.28125 -40.078125 C 57.582031 -41.429688 58.234375 -43.535156 58.234375 -46.390625 C 58.234375 -50.085938 56.890625 -53.40625 54.203125 -56.34375 C 51.515625 -59.289062 47.523438 -62.863281 42.234375 -67.0625 C 36.015625 -72.101562 30.613281 -76.535156 26.03125 -80.359375 C 21.445312 -84.179688 17.578125 -87.773438 14.421875 -91.140625 C 11.273438 -94.503906 8.753906 -98.015625 6.859375 -101.671875 C 4.972656 -105.328125 3.609375 -109.421875 2.765625 -113.953125 C 1.929688 -118.492188 1.515625 -123.914062 1.515625 -130.21875 C 1.515625 -137.945312 2.941406 -144.753906 5.796875 -150.640625 C 8.648438 -156.523438 12.429688 -161.441406 17.140625 -165.390625 C 21.847656 -169.335938 27.035156 -172.316406 32.703125 -174.328125 C 38.378906 -176.347656 44.035156 -177.359375 49.671875 -177.359375 C 58.992188 -177.359375 67.332031 -175.40625 74.6875 -171.5 C 82.039062 -167.59375 87.835938 -161.921875 92.078125 -154.484375 C 96.328125 -147.046875 98.453125 -138.035156 98.453125 -127.453125 L 98.453125 -120.515625 C 98.453125 -118.492188 98.113281 -117.125 97.4375 -116.40625 C 96.769531 -115.695312 95.21875 -115.34375 92.78125 -115.34375 L 60.640625 -115.34375 C 58.867188 -115.34375 57.75 -115.695312 57.28125 -116.40625 C 56.820312 -117.125 56.59375 -118.535156 56.59375 -120.640625 L 56.59375 -127.1875 C 56.59375 -133.414062 54.328125 -136.53125 49.796875 -136.53125 C 47.609375 -136.53125 45.988281 -135.8125 44.9375 -134.375 C 43.882812 -132.945312 43.359375 -131.140625 43.359375 -128.953125 C 43.359375 -126.429688 43.71875 -124.265625 44.4375 -122.453125 C 45.15625 -120.648438 46.539062 -118.800781 48.59375 -116.90625 C 50.65625 -115.019531 53.660156 -112.648438 57.609375 -109.796875 Z M 57.609375 -109.796875 "/></g></g></g><g fill="#e4e2dd" fill-opacity="1"><g transform="translate(107.982951, 228.833106)"><g><path d="M 106.140625 -130.71875 L 106.140625 -43.875 C 106.140625 -36.21875 104.753906 -29.488281 101.984375 -23.6875 C 99.210938 -17.894531 95.410156 -13.023438 90.578125 -9.078125 C 85.742188 -5.128906 80.238281 -2.144531 74.0625 -0.125 C 67.882812 1.894531 61.347656 2.90625 54.453125 2.90625 C 47.648438 2.90625 41.160156 1.851562 34.984375 -0.25 C 28.804688 -2.351562 23.320312 -5.421875 18.53125 -9.453125 C 13.738281 -13.484375 9.957031 -18.378906 7.1875 -24.140625 C 4.414062 -29.898438 3.03125 -36.476562 3.03125 -43.875 L 3.03125 -130.71875 C 3.03125 -138.28125 4.414062 -144.960938 7.1875 -150.765625 C 9.957031 -156.566406 13.71875 -161.441406 18.46875 -165.390625 C 23.21875 -169.335938 28.679688 -172.316406 34.859375 -174.328125 C 41.035156 -176.347656 47.523438 -177.359375 54.328125 -177.359375 C 61.222656 -177.359375 67.78125 -176.367188 74 -174.390625 C 80.21875 -172.421875 85.742188 -169.460938 90.578125 -165.515625 C 95.410156 -161.566406 99.210938 -156.691406 101.984375 -150.890625 C 104.753906 -145.097656 106.140625 -138.375 106.140625 -130.71875 Z M 54.703125 -136.53125 C 52.265625 -136.53125 50.601562 -135.601562 49.71875 -133.75 C 48.84375 -131.90625 48.40625 -129.972656 48.40625 -127.953125 L 48.40625 -46.515625 C 48.40625 -44.410156 48.78125 -42.472656 49.53125 -40.703125 C 50.289062 -38.941406 51.929688 -38.0625 54.453125 -38.0625 C 57.054688 -38.0625 58.757812 -38.773438 59.5625 -40.203125 C 60.363281 -41.640625 60.765625 -43.410156 60.765625 -45.515625 L 60.765625 -127.953125 C 60.765625 -129.972656 60.363281 -131.90625 59.5625 -133.75 C 58.757812 -135.601562 57.140625 -136.53125 54.703125 -136.53125 Z M 54.703125 -136.53125 "/></g></g></g><g fill="#e4e2dd" fill-opacity="1"><g transform="translate(217.139643, 228.833106)"><g><path d="M 90 0 L 9.578125 0 C 6.390625 0 4.796875 -1.722656 4.796875 -5.171875 L 4.796875 -169.296875 C 4.796875 -172.828125 6.390625 -174.59375 9.578125 -174.59375 L 45.515625 -174.59375 C 48.617188 -174.59375 50.171875 -172.828125 50.171875 -169.296875 L 50.171875 -40.84375 L 90 -40.84375 C 91.4375 -40.84375 92.40625 -40.441406 92.90625 -39.640625 C 93.40625 -38.847656 93.65625 -37.609375 93.65625 -35.921875 L 93.65625 -5.171875 C 93.65625 -3.484375 93.40625 -2.195312 92.90625 -1.3125 C 92.40625 -0.4375 91.4375 0 90 0 Z M 90 0 "/></g></g></g><g fill="#e4e2dd" fill-opacity="1"><g transform="translate(312.305163, 228.833106)"><g><path d="M 50.171875 -169.296875 L 50.171875 -5.171875 C 50.171875 -1.722656 48.617188 0 45.515625 0 L 9.578125 0 C 6.390625 0 4.796875 -1.722656 4.796875 -5.171875 L 4.796875 -169.296875 C 4.796875 -172.828125 6.390625 -174.59375 9.578125 -174.59375 L 45.515625 -174.59375 C 48.617188 -174.59375 50.171875 -172.828125 50.171875 -169.296875 Z M 50.171875 -169.296875 "/></g></g></g><g fill="#e4e2dd" fill-opacity="1"><g transform="translate(367.38774, 228.833106)"><g><path d="M 50.171875 -133.5 L 50.171875 -40.84375 L 55.59375 -40.84375 C 57.613281 -41.007812 59.273438 -41.804688 60.578125 -43.234375 C 61.878906 -44.660156 62.53125 -46.382812 62.53125 -48.40625 L 62.53125 -125.5625 C 62.53125 -129 61.769531 -131.179688 60.25 -132.109375 C 58.738281 -133.035156 56.976562 -133.5 54.96875 -133.5 Z M 4.796875 -5.171875 L 4.796875 -169.296875 C 4.796875 -172.828125 6.390625 -174.59375 9.578125 -174.59375 L 57.609375 -174.59375 C 64.503906 -174.59375 70.972656 -173.625 77.015625 -171.6875 C 83.066406 -169.757812 88.40625 -166.84375 93.03125 -162.9375 C 97.65625 -159.03125 101.289062 -154.15625 103.9375 -148.3125 C 106.582031 -142.46875 107.90625 -135.554688 107.90625 -127.578125 L 107.90625 -46.890625 C 107.90625 -38.910156 106.582031 -31.976562 103.9375 -26.09375 C 101.289062 -20.207031 97.65625 -15.332031 93.03125 -11.46875 C 88.40625 -7.601562 83.046875 -4.722656 76.953125 -2.828125 C 70.867188 -0.941406 64.421875 0 57.609375 0 L 9.578125 0 C 6.390625 0 4.796875 -1.722656 4.796875 -5.171875 Z M 4.796875 -5.171875 "/></g></g></g></g></g></g></g></g><g clip-path="url(#1f0ab5ef44)"><path fill="#000000" d="M 954.105469 867.511719 C 954.105469 883.890625 967.371094 897.066406 983.65625 897.066406 C 967.277344 897.066406 954.105469 910.332031 954.105469 926.617188 C 954.105469 910.238281 940.835938 897.066406 924.550781 897.066406 C 940.835938 897.066406 954.105469 883.796875 954.105469 867.511719 Z M 954.105469 867.511719 " fill-opacity="1" fill-rule="nonzero"/></g><g clip-path="url(#82a677a146)"><path fill="#000000" d="M 1110.734375 996.699219 C 1110.734375 1013.074219 1124 1026.25 1140.285156 1026.25 C 1123.910156 1026.25 1110.734375 1039.515625 1110.734375 1055.800781 C 1110.734375 1039.421875 1097.46875 1026.25 1081.183594 1026.25 C 1097.46875 1026.25 1110.734375 1012.984375 1110.734375 996.699219 Z M 1110.734375 996.699219 " fill-opacity="1" fill-rule="nonzero"/></g><path fill="#000000" d="M 785.304688 957.539062 C 785.304688 967.695312 793.539062 975.929688 803.695312 975.929688 C 793.539062 975.929688 785.304688 984.164062 785.304688 994.320312 C 785.304688 984.164062 777.070312 975.929688 766.914062 975.929688 C 777.070312 975.929688 785.304688 967.695312 785.304688 957.539062 Z M 785.304688 957.539062 " fill-opacity="1" fill-rule="nonzero"/><path fill="#000000" d="M 797.199219 1149.394531 C 797.199219 1155.980469 802.503906 1161.289062 809.09375 1161.289062 C 802.503906 1161.289062 797.199219 1166.59375 797.199219 1173.179688 C 797.199219 1166.59375 791.890625 1161.289062 785.304688 1161.289062 C 791.890625 1161.289062 797.199219 1155.980469 797.199219 1149.394531 Z M 797.199219 1149.394531 " fill-opacity="1" fill-rule="nonzero"/><path fill="#000000" d="M 981.550781 984.710938 C 981.550781 991.300781 986.855469 996.605469 993.445312 996.605469 C 986.855469 996.605469 981.550781 1001.914062 981.550781 1008.5 C 981.550781 1001.914062 976.246094 996.605469 969.65625 996.605469 C 976.246094 996.699219 981.550781 991.300781 981.550781 984.710938 Z M 981.550781 984.710938 " fill-opacity="1" fill-rule="nonzero"/><g clip-path="url(#9d7c0b9265)"><path fill="#000000" d="M 635.078125 1304.835938 C 645.140625 1283.152344 635.808594 1257.351562 614.128906 1247.289062 C 635.808594 1257.351562 661.609375 1248.019531 671.675781 1226.335938 C 661.609375 1248.019531 670.941406 1273.820312 692.625 1283.882812 C 670.941406 1273.820312 645.140625 1283.152344 635.078125 1304.835938 Z M 635.078125 1304.835938 " fill-opacity="1" fill-rule="nonzero"/></g><path fill="#000000" d="M 546.242188 1017.375 C 546.242188 1005.9375 537 996.699219 525.566406 996.699219 C 537 996.699219 546.242188 987.457031 546.242188 976.019531 C 546.242188 987.457031 555.480469 996.699219 566.917969 996.699219 C 555.480469 996.699219 546.242188 1005.9375 546.242188 1017.375 Z M 546.242188 1017.375 " fill-opacity="1" fill-rule="nonzero"/><path fill="#000000" d="M 1048.523438 974.464844 C 1044.585938 962.9375 1009.546875 963.121094 955.75 972.820312 C 1027.753906 957.996094 1075.878906 955.894531 1080.726562 970.164062 C 1089.601562 996.238281 951.269531 1066.777344 771.765625 1127.800781 C 592.261719 1188.828125 439.5625 1217.1875 430.691406 1191.113281 C 425.839844 1176.839844 465.179688 1149.210938 531.328125 1117.007812 C 482.746094 1142.074219 454.84375 1163.300781 458.777344 1174.828125 C 466.828125 1198.433594 605.34375 1172.722656 768.195312 1117.371094 C 931.046875 1062.113281 1056.574219 998.070312 1048.523438 974.464844 Z M 1048.523438 974.464844 " fill-opacity="1" fill-rule="nonzero"/><path fill="#000000" d="M 934.34375 1005.113281 C 931.964844 998.070312 910.644531 998.253906 877.984375 1004.109375 C 921.714844 995.050781 950.902344 993.859375 953.828125 1002.554688 C 959.226562 1018.378906 875.238281 1061.199219 766.183594 1098.34375 C 657.128906 1135.394531 564.449219 1152.597656 559.050781 1136.769531 C 556.121094 1128.078125 580 1111.335938 620.164062 1091.753906 C 590.707031 1107.035156 573.6875 1119.84375 576.066406 1126.886719 C 580.917969 1141.25 665.085938 1125.605469 763.988281 1092.03125 C 862.980469 1058.363281 939.191406 1019.476562 934.34375 1005.113281 Z M 934.34375 1005.113281 " fill-opacity="1" fill-rule="nonzero"/><path fill="#000000" d="M 847.882812 1028.628906 C 846.695312 1024.96875 835.625 1025.058594 818.699219 1028.078125 C 841.386719 1023.414062 856.484375 1022.773438 858.039062 1027.253906 C 860.785156 1035.488281 817.328125 1057.628906 760.878906 1076.84375 C 704.425781 1096.054688 656.394531 1104.929688 653.558594 1096.789062 C 652.003906 1092.304688 664.445312 1083.613281 685.214844 1073.457031 C 669.9375 1081.324219 661.152344 1088.003906 662.34375 1091.664062 C 664.902344 1099.074219 708.453125 1091.023438 759.6875 1073.550781 C 810.921875 1056.164062 850.355469 1036.039062 847.882812 1028.628906 Z M 847.882812 1028.628906 " fill-opacity="1" fill-rule="nonzero"/></svg>