<svg xmlns="http://www.w3.org/2000/svg" xmlns:xlink="http://www.w3.org/1999/xlink" width="2000" zoomAndPan="magnify" viewBox="0 0 1500 1499.999933" height="2000" preserveAspectRatio="xMidYMid meet" version="1.0"><defs><g/><clipPath id="a0dace0310"><path d="M 7 33 L 1252 33 L 1252 567 L 7 567 Z M 7 33 " clip-rule="nonzero"/></clipPath><clipPath id="b292809ac3"><path d="M -16.910156 -29.738281 L 1280.746094 43.625 L 1246.4375 650.433594 L -51.214844 577.070312 Z M -16.910156 -29.738281 " clip-rule="nonzero"/></clipPath><clipPath id="3d75ce8212"><path d="M -16.910156 -29.738281 L 1280.746094 43.625 L 1246.4375 650.433594 L -51.214844 577.070312 Z M -16.910156 -29.738281 " clip-rule="nonzero"/></clipPath><clipPath id="41485030b0"><path d="M 339 586 L 888 586 L 888 883.398438 L 339 883.398438 Z M 339 586 " clip-rule="nonzero"/></clipPath><clipPath id="07ecbb5454"><rect x="0" width="549" y="0" height="298"/></clipPath><clipPath id="655f1531ea"><rect x="0" width="1263" y="0" height="884"/></clipPath><clipPath id="3082d05690"><path d="M 927 870.410156 L 987 870.410156 L 987 930 L 927 930 Z M 927 870.410156 " clip-rule="nonzero"/></clipPath><clipPath id="7e8f82466b"><path d="M 1084 999 L 1143.597656 999 L 1143.597656 1059 L 1084 1059 Z M 1084 999 " clip-rule="nonzero"/></clipPath><clipPath id="90a3e8e597"><path d="M 617 1229 L 696 1229 L 696 1307.660156 L 617 1307.660156 Z M 617 1229 " clip-rule="nonzero"/></clipPath></defs><g transform="matrix(1, 0, 0, 1, 135, 319)"><g clip-path="url(#655f1531ea)"><g clip-path="url(#a0dace0310)"><g clip-path="url(#b292809ac3)"><g clip-path="url(#3d75ce8212)"><path fill="#e4e2dd" d="M 764.496094 290.53125 C 737.597656 231.277344 708.636719 178.300781 634.089844 159.171875 C 534.988281 133.542969 444.816406 206.203125 420.371094 291.953125 C 417.71875 301.175781 405.410156 353.097656 413.886719 357.625 C 419.464844 360.710938 586.40625 339.472656 602.0625 337.585938 C 652.234375 331.902344 708.796875 326.152344 758.476562 317.882812 C 780.414062 314.222656 773.386719 310.417969 764.496094 290.53125 Z M 628.269531 514.605469 C 610.488281 516.371094 591.71875 516.800781 574.324219 519.226562 C 620.464844 532.0625 706.855469 503.710938 651.445312 511.65625 C 643.714844 512.710938 636.199219 513.777344 628.269531 514.605469 Z M 820.929688 434.109375 C 737.453125 546.558594 596.441406 583.960938 468.699219 514.746094 C 410.613281 483.34375 459.660156 516.367188 479.96875 526.460938 C 610.496094 591.570312 782.433594 538.449219 838.757812 408.914062 C 848.535156 386.671875 823.007812 431.242188 820.929688 434.109375 Z M 858.070312 300.933594 C 897.113281 284.820312 856.59375 266.765625 832.789062 273.300781 C 810.082031 279.261719 805.863281 274.761719 792.941406 254.644531 C 762.796875 207.5625 752.925781 178.671875 695.058594 150.902344 C 570.1875 91.222656 440.210938 163.335938 409.960938 283.90625 C 398.410156 329.90625 430.675781 249.074219 432.34375 245.972656 C 476.632812 159.644531 581.1875 122.734375 674.234375 165.0625 C 758.976562 203.515625 748.402344 292.601562 806.695312 305.269531 C 824.378906 309.039062 840.945312 306.144531 858.070312 300.933594 Z M 1250.730469 254.960938 C 1176.332031 289.742188 1023.582031 301.128906 937.398438 314.578125 C 846.46875 329.035156 876.527344 377.601562 833.261719 442.046875 C 723.238281 605.828125 489.847656 607.972656 380.46875 447.550781 C 343.664062 393.917969 341.839844 388.488281 267.125 398.75 C 258.097656 400.15625 130.648438 420.007812 141.261719 401.859375 C 145.515625 394.433594 135.957031 397.726562 127.367188 398.945312 C 126.71875 399.121094 -42.527344 423.425781 22.296875 407.277344 C 74.585938 394.257812 203.25 386.832031 235.011719 375.207031 C 253.082031 368.34375 119.460938 388.058594 206.726562 366.789062 C 226.601562 361.949219 294.253906 344.683594 305.925781 330.429688 C 305.113281 329.746094 212.613281 368.1875 203.59375 361.925781 C 204.066406 361.101562 240.234375 343.121094 246.21875 338.984375 C 331.941406 280.988281 316.207031 144.820312 470.074219 64.6875 C 585.753906 4.335938 732.042969 35.613281 814.988281 124.664062 C 854.367188 166.726562 871.96875 213.308594 905.746094 252.714844 C 950.101562 304.644531 1269.804688 245.390625 1250.730469 254.960938 Z M 754.464844 343.648438 C 706.878906 348.839844 660.160156 357.488281 611.085938 362.597656 C 588.160156 364.921875 419.507812 378.820312 411.625 390.089844 C 402.140625 403.402344 451.917969 434.761719 462.699219 440.058594 C 564.054688 489.886719 700.582031 486.527344 766.773438 385.882812 C 779.109375 367.410156 795.734375 340.867188 760.445312 343.347656 Z M 418.085938 140.144531 C 381.824219 159.824219 334.734375 250.46875 331.804688 287.15625 C 330.359375 305.183594 363.988281 219.101562 367.355469 212.261719 C 378.21875 189.65625 416.558594 148.363281 419.363281 140.214844 Z M 669.730469 78.957031 C 649.367188 66.089844 572.863281 70.285156 547.683594 74.828125 C 516.246094 80.71875 453.042969 105.902344 529.523438 87.007812 C 590.027344 71.894531 590.839844 76.414062 651.359375 79.835938 C 653.695312 79.96875 668.949219 81.46875 669.730469 78.957031 Z M 669.730469 78.957031 " fill-opacity="1" fill-rule="evenodd"/></g></g></g><g clip-path="url(#41485030b0)"><g transform="matrix(1, 0, 0, 1, 339, 586)"><g clip-path="url(#07ecbb5454)"><g fill="#e4e2dd" fill-opacity="1"><g transform="translate(8.958663, 228.833106)"><g><path d="M 91.015625 -133.5 L 69.84375 -133.5 L 69.84375 -4.921875 C 69.84375 -1.640625 68.535156 0 65.921875 0 L 28.359375 0 C 25.753906 0 24.453125 -1.640625 24.453125 -4.921875 L 24.453125 -133.5 L 3.15625 -133.5 C 0.550781 -133.5 -0.75 -135.222656 -0.75 -138.671875 L -0.75 -169.296875 C -0.75 -172.828125 0.550781 -174.59375 3.15625 -174.59375 L 91.015625 -174.59375 C 93.703125 -174.59375 95.046875 -172.828125 95.046875 -169.296875 L 95.046875 -138.671875 C 95.046875 -135.222656 93.703125 -133.5 91.015625 -133.5 Z M 91.015625 -133.5 "/></g></g></g><g fill="#e4e2dd" fill-opacity="1"><g transform="translate(103.115807, 228.833106)"><g><path d="M 106.140625 -130.71875 L 106.140625 -43.875 C 106.140625 -36.21875 104.753906 -29.488281 101.984375 -23.6875 C 99.210938 -17.894531 95.410156 -13.023438 90.578125 -9.078125 C 85.742188 -5.128906 80.238281 -2.144531 74.0625 -0.125 C 67.882812 1.894531 61.347656 2.90625 54.453125 2.90625 C 47.648438 2.90625 41.160156 1.851562 34.984375 -0.25 C 28.804688 -2.351562 23.320312 -5.421875 18.53125 -9.453125 C 13.738281 -13.484375 9.957031 -18.378906 7.1875 -24.140625 C 4.414062 -29.898438 3.03125 -36.476562 3.03125 -43.875 L 3.03125 -130.71875 C 3.03125 -138.28125 4.414062 -144.960938 7.1875 -150.765625 C 9.957031 -156.566406 13.71875 -161.441406 18.46875 -165.390625 C 23.21875 -169.335938 28.679688 -172.316406 34.859375 -174.328125 C 41.035156 -176.347656 47.523438 -177.359375 54.328125 -177.359375 C 61.222656 -177.359375 67.78125 -176.367188 74 -174.390625 C 80.21875 -172.421875 85.742188 -169.460938 90.578125 -165.515625 C 95.410156 -161.566406 99.210938 -156.691406 101.984375 -150.890625 C 104.753906 -145.097656 106.140625 -138.375 106.140625 -130.71875 Z M 54.703125 -136.53125 C 52.265625 -136.53125 50.601562 -135.601562 49.71875 -133.75 C 48.84375 -131.90625 48.40625 -129.972656 48.40625 -127.953125 L 48.40625 -46.515625 C 48.40625 -44.410156 48.78125 -42.472656 49.53125 -40.703125 C 50.289062 -38.941406 51.929688 -38.0625 54.453125 -38.0625 C 57.054688 -38.0625 58.757812 -38.773438 59.5625 -40.203125 C 60.363281 -41.640625 60.765625 -43.410156 60.765625 -45.515625 L 60.765625 -127.953125 C 60.765625 -129.972656 60.363281 -131.90625 59.5625 -133.75 C 58.757812 -135.601562 57.140625 -136.53125 54.703125 -136.53125 Z M 54.703125 -136.53125 "/></g></g></g><g fill="#e4e2dd" fill-opacity="1"><g transform="translate(212.272498, 228.833106)"><g><path d="M 61.890625 -46.515625 L 61.890625 -169.296875 C 61.890625 -170.722656 62.3125 -171.960938 63.15625 -173.015625 C 64 -174.066406 65.050781 -174.59375 66.3125 -174.59375 L 102.859375 -174.59375 C 104.296875 -174.59375 105.390625 -174.046875 106.140625 -172.953125 C 106.898438 -171.859375 107.28125 -170.640625 107.28125 -169.296875 L 107.28125 -43.875 C 107.28125 -37.394531 105.890625 -31.316406 103.109375 -25.640625 C 100.335938 -19.972656 96.554688 -14.992188 91.765625 -10.703125 C 86.984375 -6.421875 81.476562 -3.082031 75.25 -0.6875 C 69.03125 1.707031 62.519531 2.90625 55.71875 2.90625 C 48.914062 2.90625 42.425781 1.707031 36.25 -0.6875 C 30.070312 -3.082031 24.585938 -6.421875 19.796875 -10.703125 C 15.003906 -14.992188 11.21875 -19.972656 8.4375 -25.640625 C 5.664062 -31.316406 4.28125 -37.394531 4.28125 -43.875 L 4.28125 -169.296875 C 4.28125 -170.640625 4.613281 -171.859375 5.28125 -172.953125 C 5.957031 -174.046875 6.757812 -174.59375 7.6875 -174.59375 L 45.640625 -174.59375 C 47.316406 -174.59375 48.40625 -174.066406 48.90625 -173.015625 C 49.414062 -171.960938 49.671875 -170.722656 49.671875 -169.296875 L 49.671875 -46.515625 C 49.671875 -44.410156 50.085938 -42.472656 50.921875 -40.703125 C 51.765625 -38.941406 53.40625 -38.0625 55.84375 -38.0625 C 58.28125 -38.0625 59.894531 -38.941406 60.6875 -40.703125 C 61.488281 -42.472656 61.890625 -44.410156 61.890625 -46.515625 Z M 61.890625 -46.515625 "/></g></g></g><g fill="#e4e2dd" fill-opacity="1"><g transform="translate(323.824129, 228.833106)"><g><path d="M 103.125 -129.71875 L 103.125 -115.46875 C 103.125 -113.363281 102.828125 -111.847656 102.234375 -110.921875 C 101.648438 -110.003906 100.429688 -109.546875 98.578125 -109.546875 L 65.046875 -109.546875 C 63.453125 -109.546875 62.359375 -109.960938 61.765625 -110.796875 C 61.179688 -111.640625 60.890625 -112.945312 60.890625 -114.71875 L 60.890625 -128.328125 C 60.890625 -129.421875 60.71875 -130.597656 60.375 -131.859375 C 60.039062 -133.117188 59.429688 -134.210938 58.546875 -135.140625 C 57.671875 -136.066406 56.4375 -136.53125 54.84375 -136.53125 C 52.65625 -136.53125 51.035156 -135.726562 49.984375 -134.125 C 48.929688 -132.53125 48.40625 -130.722656 48.40625 -128.703125 L 48.40625 -46.515625 C 48.40625 -44.410156 48.820312 -42.472656 49.65625 -40.703125 C 50.5 -38.941406 52.226562 -38.0625 54.84375 -38.0625 C 57.78125 -38.0625 59.625 -38.941406 60.375 -40.703125 C 61.132812 -42.472656 61.515625 -44.410156 61.515625 -46.515625 L 61.515625 -64.421875 C 61.515625 -66.347656 61.785156 -67.664062 62.328125 -68.375 C 62.878906 -69.09375 63.953125 -69.453125 65.546875 -69.453125 L 99.203125 -69.453125 C 100.972656 -69.453125 102.191406 -69.15625 102.859375 -68.5625 C 103.535156 -67.976562 103.875 -66.722656 103.875 -64.796875 L 103.875 -43.875 C 103.875 -36.3125 102.59375 -29.609375 100.03125 -23.765625 C 97.46875 -17.921875 93.9375 -13.023438 89.4375 -9.078125 C 84.945312 -5.128906 79.71875 -2.144531 73.75 -0.125 C 67.78125 1.894531 61.347656 2.90625 54.453125 2.90625 C 47.648438 2.90625 41.160156 1.894531 34.984375 -0.125 C 28.804688 -2.144531 23.320312 -5.128906 18.53125 -9.078125 C 13.738281 -13.023438 9.957031 -17.921875 7.1875 -23.765625 C 4.414062 -29.609375 3.03125 -36.3125 3.03125 -43.875 L 3.03125 -130.71875 C 3.03125 -137.445312 4.269531 -143.644531 6.75 -149.3125 C 9.226562 -154.988281 12.753906 -159.925781 17.328125 -164.125 C 21.910156 -168.332031 27.351562 -171.585938 33.65625 -173.890625 C 39.957031 -176.203125 46.890625 -177.359375 54.453125 -177.359375 C 63.273438 -177.359375 70.773438 -175.972656 76.953125 -173.203125 C 83.128906 -170.429688 88.148438 -166.753906 92.015625 -162.171875 C 95.890625 -157.597656 98.707031 -152.492188 100.46875 -146.859375 C 102.238281 -141.234375 103.125 -135.519531 103.125 -129.71875 Z M 103.125 -129.71875 "/></g></g></g><g fill="#e4e2dd" fill-opacity="1"><g transform="translate(430.081786, 228.833106)"><g><path d="M 67.3125 -174.59375 L 103.25 -174.59375 C 104.25 -174.59375 105.273438 -174.273438 106.328125 -173.640625 C 107.378906 -173.015625 107.90625 -171.648438 107.90625 -169.546875 L 107.90625 -5.171875 C 107.90625 -1.722656 106.140625 0 102.609375 0 L 67.3125 0 C 64.125 0 62.53125 -1.722656 62.53125 -5.171875 L 62.53125 -69.453125 L 50.171875 -69.453125 L 50.171875 -5.171875 C 50.171875 -1.722656 48.617188 0 45.515625 0 L 9.578125 0 C 6.390625 0 4.796875 -1.722656 4.796875 -5.171875 L 4.796875 -169.296875 C 4.796875 -172.828125 6.390625 -174.59375 9.578125 -174.59375 L 45.515625 -174.59375 C 48.617188 -174.59375 50.171875 -172.828125 50.171875 -169.296875 L 50.171875 -110.421875 L 62.53125 -110.421875 L 62.53125 -169.296875 C 62.53125 -170.722656 62.925781 -171.960938 63.71875 -173.015625 C 64.519531 -174.066406 65.71875 -174.59375 67.3125 -174.59375 Z M 67.3125 -174.59375 "/></g></g></g></g></g></g></g></g><g clip-path="url(#3082d05690)"><path fill="#000000" d="M 957.109375 870.542969 C 957.109375 886.921875 970.375 900.09375 986.660156 900.09375 C 970.285156 900.09375 957.109375 913.359375 957.109375 929.644531 C 957.109375 913.269531 943.84375 900.09375 927.558594 900.09375 C 943.84375 900.09375 957.109375 886.828125 957.109375 870.542969 Z M 957.109375 870.542969 " fill-opacity="1" fill-rule="nonzero"/></g><g clip-path="url(#7e8f82466b)"><path fill="#000000" d="M 1113.742188 999.726562 C 1113.742188 1016.105469 1127.007812 1029.277344 1143.292969 1029.277344 C 1126.914062 1029.277344 1113.742188 1042.542969 1113.742188 1058.828125 C 1113.742188 1042.453125 1100.476562 1029.277344 1084.1875 1029.277344 C 1100.476562 1029.277344 1113.742188 1016.011719 1113.742188 999.726562 Z M 1113.742188 999.726562 " fill-opacity="1" fill-rule="nonzero"/></g><path fill="#000000" d="M 788.3125 960.570312 C 788.3125 970.726562 796.546875 978.960938 806.699219 978.960938 C 796.546875 978.960938 788.3125 987.191406 788.3125 997.347656 C 788.3125 987.191406 780.078125 978.960938 769.921875 978.960938 C 780.078125 978.960938 788.3125 970.726562 788.3125 960.570312 Z M 788.3125 960.570312 " fill-opacity="1" fill-rule="nonzero"/><path fill="#000000" d="M 800.203125 1152.425781 C 800.203125 1159.011719 805.511719 1164.316406 812.097656 1164.316406 C 805.511719 1164.316406 800.203125 1169.625 800.203125 1176.210938 C 800.203125 1169.625 794.898438 1164.316406 788.3125 1164.316406 C 794.898438 1164.316406 800.203125 1159.011719 800.203125 1152.425781 Z M 800.203125 1152.425781 " fill-opacity="1" fill-rule="nonzero"/><path fill="#000000" d="M 984.558594 987.742188 C 984.558594 994.328125 989.863281 999.636719 996.449219 999.636719 C 989.863281 999.636719 984.558594 1004.941406 984.558594 1011.53125 C 984.558594 1004.941406 979.25 999.636719 972.664062 999.636719 C 979.25 999.726562 984.558594 994.328125 984.558594 987.742188 Z M 984.558594 987.742188 " fill-opacity="1" fill-rule="nonzero"/><g clip-path="url(#90a3e8e597)"><path fill="#000000" d="M 638.085938 1307.867188 C 648.148438 1286.183594 638.816406 1260.382812 617.132812 1250.316406 C 638.816406 1260.382812 664.617188 1251.050781 674.679688 1229.367188 C 664.617188 1251.050781 673.949219 1276.851562 695.632812 1286.914062 C 673.949219 1276.851562 648.148438 1286.183594 638.085938 1307.867188 Z M 638.085938 1307.867188 " fill-opacity="1" fill-rule="nonzero"/></g><path fill="#000000" d="M 549.246094 1020.402344 C 549.246094 1008.96875 540.007812 999.726562 528.570312 999.726562 C 540.007812 999.726562 549.246094 990.488281 549.246094 979.050781 C 549.246094 990.488281 558.488281 999.726562 569.925781 999.726562 C 558.488281 999.726562 549.246094 1008.96875 549.246094 1020.402344 Z M 549.246094 1020.402344 " fill-opacity="1" fill-rule="nonzero"/><path fill="#000000" d="M 1051.527344 977.496094 C 1047.59375 965.96875 1012.554688 966.152344 958.757812 975.847656 C 1030.757812 961.027344 1078.882812 958.921875 1083.730469 973.195312 C 1092.605469 999.269531 954.273438 1069.808594 774.769531 1130.832031 C 595.265625 1191.855469 442.570312 1220.21875 433.695312 1194.144531 C 428.847656 1179.871094 468.1875 1152.242188 534.335938 1120.035156 C 485.753906 1145.105469 457.847656 1166.332031 461.78125 1177.859375 C 469.835938 1201.460938 608.351562 1175.753906 771.203125 1120.402344 C 934.054688 1065.140625 1059.578125 1001.097656 1051.527344 977.496094 Z M 1051.527344 977.496094 " fill-opacity="1" fill-rule="nonzero"/><path fill="#000000" d="M 937.347656 1008.144531 C 934.96875 1001.097656 913.652344 1001.28125 880.992188 1007.136719 C 924.722656 998.082031 953.90625 996.890625 956.835938 1005.582031 C 962.234375 1021.410156 878.246094 1064.226562 769.191406 1101.371094 C 660.132812 1138.425781 567.453125 1155.625 562.054688 1139.796875 C 559.128906 1131.105469 583.007812 1114.363281 623.171875 1094.785156 C 593.710938 1110.0625 576.695312 1122.871094 579.074219 1129.917969 C 583.921875 1144.28125 668.09375 1128.636719 766.992188 1095.058594 C 865.984375 1061.390625 942.195312 1022.507812 937.347656 1008.144531 Z M 937.347656 1008.144531 " fill-opacity="1" fill-rule="nonzero"/><path fill="#000000" d="M 850.890625 1031.65625 C 849.699219 1027.996094 838.628906 1028.089844 821.703125 1031.109375 C 844.394531 1026.441406 859.488281 1025.800781 861.046875 1030.285156 C 863.789062 1038.519531 820.332031 1060.660156 763.882812 1079.871094 C 707.433594 1099.085938 659.402344 1107.960938 656.566406 1099.816406 C 655.011719 1095.335938 667.453125 1086.644531 688.222656 1076.488281 C 672.941406 1084.355469 664.160156 1091.035156 665.347656 1094.695312 C 667.910156 1102.105469 711.460938 1094.054688 762.695312 1076.578125 C 813.929688 1059.195312 853.359375 1039.066406 850.890625 1031.65625 Z M 850.890625 1031.65625 " fill-opacity="1" fill-rule="nonzero"/></svg>